<svg width="460.2" height="118.89431314763206" viewBox="0 0 369.5454545454545 95.47338764669992" class="css-1j8o68f"><defs id="SvgjsDefs3796"></defs><g id="SvgjsG3797" featurekey="symbolFeature-0" transform="matrix(0.11349649862457274,0,0,0.11349649862457274,-28.152451807267067,-23.92426388780398)" fill="#eeeeee"><g xmlns="http://www.w3.org/2000/svg" id="SvgjsG1522" transform="matrix(1.66015625,0,0,1.66015625,73.3984375,56.3984375)"><g><path d="M358.4,599.7c-55.1,0-99.9-44.8-99.9-99.9c0-55.1,44.8-99.9,99.9-99.9c55.1,0,99.9,44.8,99.9,99.9    C458.3,554.9,413.5,599.7,358.4,599.7z M358.4,415.5c-46.5,0-84.3,37.8-84.3,84.3c0,46.5,37.8,84.3,84.3,84.3    c46.5,0,84.3-37.8,84.3-84.3C442.7,453.4,404.9,415.5,358.4,415.5z"></path></g><g><path d="M358.4,569c-38.1,0-69.2-31-69.2-69.2s31-69.2,69.2-69.2s69.2,31,69.2,69.2S396.6,569,358.4,569z M358.4,446.3    c-29.5,0-53.6,24-53.6,53.6c0,29.5,24,53.6,53.6,53.6c29.5,0,53.6-24,53.6-53.6C412,470.3,388,446.3,358.4,446.3z"></path></g><g><path d="M393.5,389.2h-70.1c-14,0-25.3-11.4-25.3-25.3c0-14,11.4-25.3,25.3-25.3h70.1c14,0,25.3,11.4,25.3,25.3    C418.8,377.9,407.5,389.2,393.5,389.2z M323.4,354.2c-5.4,0-9.7,4.4-9.7,9.7c0,5.4,4.4,9.7,9.7,9.7h70.1c5.4,0,9.7-4.4,9.7-9.7    c0-5.4-4.4-9.7-9.7-9.7H323.4z"></path></g><g><path d="M604,599.6H113c-4.3,0-7.8-3.5-7.8-7.8V320c0-4.3,3.5-7.8,7.8-7.8h491c4.3,0,7.8,3.5,7.8,7.8v271.8    C611.8,596.2,608.3,599.6,604,599.6z M120.8,584.1h475.4V327.8H120.8V584.1z"></path></g><g><path d="M437.3,460.4c-2.7,0-5.3-1.4-6.7-3.8c-15.4-25.7-42.4-41-72.2-41c-29.8,0-56.8,15.3-72.2,41c-1.8,3-5.4,4.4-8.8,3.5    c-3.4-0.9-5.7-4-5.7-7.5V320c0-4.3,3.5-7.8,7.8-7.8h157.8c4.3,0,7.8,3.5,7.8,7.8v132.5c0,3.5-2.3,6.6-5.7,7.5    C438.7,460.3,438,460.4,437.3,460.4z M358.4,400c17.6,0,34.8,4.6,49.9,13.4c7.8,4.5,14.9,10.1,21.2,16.5v-102H287.4v102    c6.3-6.4,13.4-11.9,21.2-16.5C323.6,404.6,340.9,400,358.4,400z"></path></g><g><path d="M358.5,599.7H113c-4.3,0-7.8-3.5-7.8-7.8V416.5c0-4.3,3.5-7.8,7.8-7.8h166.6c4.3,0,7.8,3.5,7.8,7.8v36.1    c0,1.4-0.4,2.8-1.1,4c-7.9,13.1-12,28.1-12,43.2c0,46.4,37.8,84.2,84.3,84.2c4.3,0,7.8,3.5,7.8,7.8S362.8,599.7,358.5,599.7z     M120.8,584.1H305c-27.8-17.7-46.3-48.9-46.3-84.2c0-17.3,4.5-34.3,13.1-49.4v-26.2h-151V584.1z"></path></g><g><path d="M604,599.7H358.5c-4.3,0-7.8-3.5-7.8-7.8s3.5-7.8,7.8-7.8c46.4,0,84.2-37.8,84.2-84.3c0-15.2-4.2-30.1-12-43.2    c-0.7-1.2-1.1-2.6-1.1-4v-36.1c0-4.3,3.5-7.8,7.8-7.8H604c4.3,0,7.8,3.5,7.8,7.8v175.3C611.8,596.2,608.3,599.7,604,599.7z     M412,584.1h184.2V424.3h-151v26.2c8.6,15,13.1,32,13.1,49.3C458.3,535.2,439.8,566.3,412,584.1z"></path></g><g><path d="M437.3,327.8H279.6c-2.6,0-5.1-1.3-6.5-3.5c-1.4-2.2-1.7-5-0.6-7.4l24.4-54.9c7.2-16.1,26.5-28.7,44.1-28.7h35    c17.6,0,37,12.6,44.1,28.7l24.4,54.9c1.1,2.4,0.8,5.2-0.6,7.4C442.4,326.5,440,327.8,437.3,327.8z M291.5,312.3h133.8l-19.5-43.9    c-4.6-10.3-18.5-19.4-29.9-19.4h-35c-11.3,0-25.3,9.1-29.9,19.4L291.5,312.3z"></path></g><g><path d="M406.7,327.8h-96.5c-2.6,0-5.1-1.3-6.5-3.5s-1.7-5-0.6-7.4l14.9-33.5c4.8-10.8,17.9-19.3,29.7-19.3h21.4    c11.9,0,24.9,8.5,29.7,19.3l14.9,33.5c1.1,2.4,0.9,5.2-0.6,7.4S409.3,327.8,406.7,327.8z M322.2,312.3h72.5l-10-22.6    c-2.3-5.3-9.7-10.1-15.5-10.1h-21.4c-5.8,0-13.1,4.8-15.5,10.1L322.2,312.3z"></path></g><g><path d="M560.1,327.8h-70.1c-4.3,0-7.8-3.5-7.8-7.8v-26.3c0-4.3,3.5-7.8,7.8-7.8h70.1c4.3,0,7.8,3.5,7.8,7.8V320    C567.9,324.4,564.4,327.8,560.1,327.8z M497.7,312.3h54.5v-10.7h-54.5V312.3z"></path></g><g><path d="M183.1,327.9H148c-4.3,0-7.8-3.5-7.8-7.8v-43.9c0-4.3,3.5-7.8,7.8-7.8h35.1c4.3,0,7.8,3.5,7.8,7.8v43.9    C190.9,324.4,187.4,327.9,183.1,327.9z M155.8,312.3h19.5v-28.3h-19.5V312.3z"></path></g><g><path d="M226.9,393.6c-14,0-25.3-11.4-25.3-25.3c0-14,11.4-25.3,25.3-25.3s25.3,11.4,25.3,25.3    C252.3,382.2,240.9,393.6,226.9,393.6z M226.9,358.6c-5.4,0-9.7,4.4-9.7,9.7s4.4,9.7,9.7,9.7c5.4,0,9.7-4.4,9.7-9.7    S232.3,358.6,226.9,358.6z"></path></g><g><path d="M358.4,100.8v109.6V100.8z"></path><path d="M358.4,218.2c-4.3,0-7.8-3.5-7.8-7.8V100.8c0-4.3,3.5-7.8,7.8-7.8s7.8,3.5,7.8,7.8v109.6    C366.2,214.8,362.7,218.2,358.4,218.2z"></path></g><g><path d="M245.1,233.6l32.4,13.4L245.1,233.6z"></path><path d="M277.5,254.8c-1,0-2-0.2-3-0.6l-32.4-13.4c-3-1.2-4.8-4.1-4.8-7.2c0-1,0.2-2,0.6-3c1.6-4,6.2-5.9,10.2-4.2l32.4,13.4    c3,1.2,4.8,4.1,4.8,7.2c0,1-0.2,2-0.6,3C283.4,253,280.5,254.8,277.5,254.8z"></path></g><g><path d="M311.5,167.2l13.4,32.4L311.5,167.2z"></path><path d="M324.9,207.4c-3.1,0-6-1.8-7.2-4.8l-13.4-32.4c-0.4-1-0.6-2-0.6-3c0-3.1,1.8-6,4.8-7.2c4-1.6,8.5,0.2,10.2,4.2l13.4,32.4    c0.4,1,0.6,2,0.6,3c0,3.1-1.8,6-4.8,7.2C326.9,207.2,325.8,207.4,324.9,207.4z"></path></g><g><path d="M405.4,167.2L392,199.6L405.4,167.2z"></path><path d="M392,207.4c-1,0-2-0.2-3-0.6c-3-1.2-4.8-4.1-4.8-7.2c0-1,0.2-2,0.6-3l13.4-32.4c1.6-4,6.2-5.9,10.2-4.2    c3,1.2,4.8,4.1,4.8,7.2c0,1-0.2,2-0.6,3l-13.4,32.4C398,205.6,395.1,207.4,392,207.4z"></path></g><g><path d="M471.8,233.6L439.4,247L471.8,233.6z"></path><path d="M439.4,254.8c-3.1,0-6-1.8-7.2-4.8c-0.4-1-0.6-2-0.6-3c0-3.1,1.8-6,4.8-7.2l32.4-13.4c4-1.6,8.5,0.2,10.2,4.2    c0.4,1,0.6,2,0.6,3c0,3.1-1.8,6-4.8,7.2l-32.4,13.4C441.4,254.7,440.4,254.8,439.4,254.8z"></path></g><g><path d="M234.5,156.6l62,62L234.5,156.6z"></path><path d="M296.5,226.4c-2,0-4-0.8-5.5-2.3l-62-62c-1.5-1.5-2.3-3.5-2.3-5.5c0-2,0.8-4,2.3-5.5c3-3,8-3,11,0l62,62    c1.5,1.5,2.3,3.5,2.3,5.5c0,2-0.8,4-2.3,5.5C300.5,225.7,298.5,226.4,296.5,226.4z"></path></g><g><path d="M482.4,156.6l-62,62L482.4,156.6z"></path><path d="M420.5,226.4c-2,0-4-0.8-5.5-2.3c-1.5-1.5-2.3-3.5-2.3-5.5c0-2,0.8-4,2.3-5.5l62-62c3-3,8-3,11,0c1.5,1.5,2.3,3.5,2.3,5.5    c0,2-0.8,4-2.3,5.5l-62,62C424.5,225.7,422.5,226.4,420.5,226.4z"></path></g></g></g><g id="SvgjsG3798" featurekey="nameFeature-0" transform="matrix(1.7958839849519082,0,0,1.7958839849519082,115.07013105885798,-10.189264985372954)" fill="#eeeeee"><path d="M3.8672 8.359000000000002 q0.25390625 0 0.46875 1.5625 l0.078125 0 q0 0.078125 -0.078125 0.078125 q0.078125 1.3671875 0.078125 1.640625 q-0.078125 1.34765625 -0.078125 1.5625 l0.078125 0 l-0.078125 0.15625 l-0.3125 7.5781 l0.078125 0 q-0.078125 0.15625 -0.078125 0.234375 l0 0.15625 l0.078125 0 q0.87890625 -2.51953125 3.28125 -6.09375 q4.6484375 -5.703125 8.125 -5.703125 q2.8515625 0 3.28125 3.671875 q0 3.80859375 -4.609375 7.96875 q-3.84765625 2.734375 -6.875 2.734375 q-0.703125 0 -2.265625 -0.546875 q-0.17578125 0 -1.09375 3.828125 q-0.546875 3.30078125 -0.78125 5.625 l0.078125 0 q-0.234375 0.76171875 -0.234375 2.65625 l0 0.9375 l-0.078125 0.9375 l0.078125 0 l-0.078125 0.15625 l0 0.46875 q0 0.703125 -0.15625 1.328125 l-0.078125 0 q-0.15625 0 -0.15625 -0.234375 l-0.078125 0 q0 0.1953125 -0.390625 0.234375 q0 0.15625 -0.15625 0.15625 l-0.078125 0 l0 -0.23438 l-0.078125 0 q-0.37109375 0.390625 -0.78125 0.390625 q-0.1171875 0.390625 -0.546875 0.390625 q-0.46875 -0.60546875 -0.46875 -2.265625 l0 -0.39063 q0 -0.078125 0.078125 -0.078125 q0 -0.078125 -0.078125 -0.078125 l0.078125 -0.39063 q0 -1.30859375 0.46875 -5.078125 l-0.078125 0 q0.703125 -4.296875 1.40625 -10.703125 q-0.078125 0 -0.078125 -0.078125 q0.25390625 0 0.390625 -3.4375 q0.46875 -3.7109375 0.46875 -6.40625 l0 -0.625 q0 -0.078125 -0.078125 -0.078125 l0.078125 -0.15625 q-0.078125 -1.1328125 -0.078125 -1.25 l0 -0.078125 l0.078125 0 q0.3125 0.52734375 0.3125 2.109375 l0 0.15625 q0 0.078125 0.078125 0.078125 l-0.078125 0.15625 l0 1.6406 q0 0.078125 0.078125 0.078125 l-0.078125 0.15625 q0 0.13671875 -0.15625 2.734375 q0.078125 0 0.078125 0.078125 l-0.15625 0.078125 q0 0.078125 0.078125 0.078125 q-0.078125 0.13671875 -0.15625 2.34375 q-0.078125 0 -0.078125 0.078125 l0.078125 0 l-0.15625 0.9375 q0.078125 0 0.078125 0.078125 q-0.078125 0 -0.078125 0.078125 l0.078125 0 l-0.15625 0.78125 q0.078125 0 0.078125 0.078125 q-0.078125 0 -0.078125 0.078125 l0.078125 0 q-0.078125 0.17578125 -0.15625 1.015625 l0.078125 0 l-1.3281 11.406 l0.078125 0 l-0.078125 0.15625 l-0.23438 4.0625 l0 0.078125 l0.078125 0 q0.15625 -0.91796875 0.15625 -1.796875 q0.078125 0 0.078125 -0.078125 l-0.078125 0 q0.078125 -0.15625 0.078125 -0.234375 q0 -1.015625 0.15625 -1.640625 l-0.078125 0 q0.390625 -3.9453125 0.859375 -6.5625 l-0.078125 0 l0.078125 -0.15625 q0 -0.078125 -0.078125 -0.078125 q0.078125 -0.17578125 0.15625 -0.703125 l-0.078125 0 q0.13671875 -0.37109375 0.234375 -0.9375 l-0.078125 0 q0.15625 -0.48828125 0.15625 -0.625 l-0.078125 0 q0.078125 -0.234375 0.15625 -0.234375 l-0.078125 -0.15625 l0.078125 -0.15625 l-0.078125 0 q0.078125 -0.17578125 0.234375 -1.171875 l-0.078125 0 q0.05859375 -0.15625 0.15625 -0.859375 l-0.15625 0 l0 -0.078125 q0.17578125 0 0.234375 -0.46875 q-0.078125 0 -0.078125 -0.078125 q0.078125 0 0.078125 -0.078125 l-0.078125 0 l0.15625 -0.70313 l-0.078125 0 q0.078125 -0.46875 0.15625 -0.46875 q0 -0.078125 -0.078125 -0.078125 q0.09765625 -0.83984375 0.15625 -1.015625 l-0.078125 0 l0.15625 -0.78125 q-0.078125 0 -0.078125 -0.078125 q0.078125 0 0.078125 -0.078125 l-0.078125 0 l0.15625 -0.85938 q-0.078125 0 -0.078125 -0.078125 q0.078125 0 0.078125 -0.078125 l-0.078125 0 q0.05859375 -0.21484375 0.15625 -0.9375 l-0.078125 0 q0.078125 -0.9375 0.234375 -0.9375 q-0.078125 -0.15625 -0.078125 -0.234375 l0 -0.70313 l0.078125 0 l0 0.625 l0.078125 0 q0.15625 -2.8515625 0.15625 -4.53125 l0 -0.23438 q0 -0.078125 -0.078125 -0.078125 q0 -0.078125 0.078125 -0.078125 q0 -0.1953125 -0.15625 -1.09375 q0.078125 0 0.078125 -0.078125 l-0.078125 0 q0.1171875 -0.33203125 0.390625 -0.46875 z M15.742 10.390999999999998 l0 0.078125 l0.15625 0 l-0.078125 0.15625 l0.54688 0.54688 q-0.078125 0 -0.078125 0.078125 q1.015625 0.95703125 1.015625 2.96875 q-0.078125 0.7421875 -0.15625 0.859375 l0.078125 0 q-0.3125 1.09375 -0.78125 2.109375 l0.078125 0 q1.15234375 -1.9140625 1.25 -3.359375 l0.078125 0 l0 0.15625 l0.078125 0 l0 -0.78125 q0 -1.93359375 -1.5625 -2.65625 q-0.390625 -0.15625 -0.546875 -0.15625 l-0.078125 0 z M11.836 11.953 l-0.15625 -0.078125 q-3.18359375 3.18359375 -4.765625 6.40625 q-1.171875 2.59765625 -1.796875 4.53125 q0 0.29296875 0.859375 0.390625 l0.078125 0 l0 -0.078125 q-0.390625 -0.05859375 -0.390625 -0.234375 l0.15625 0 l-0.078125 -0.15625 l0.3125 -0.39063 q-0.078125 0 -0.078125 -0.078125 l0.078125 0 q1.7578125 0.234375 2.1875 0.234375 q2.65625 0 5.390625 -2.109375 q2.48046875 -2.59765625 3.046875 -4.6875 l-0.078125 -0.3125 l0.15625 0.078125 l-0.078125 -0.15625 q0.234375 -0.9375 0.234375 -1.71875 l0 -0.15625 q0 -2.05078125 -2.34375 -2.65625 l-0.3125 0 q-1.81640625 0.3125 -2.421875 1.09375 l0 0.078125 z M3.3203 15.703 l0 0.3125 l0.078125 0 l0 -0.3125 l-0.078125 0 z M5.9766 18.047 q-2.109375 4.08203125 -2.109375 5.234375 l0 0.46875 l0.078125 0 q0.6640625 -2.7734375 2.109375 -5.703125 l-0.078125 0 z M26.40621875 7.734000000000002 l0.15625 0.23438 l0 0.15625 l-0.078125 0.15625 q0.078125 0 0.078125 0.078125 q-0.76171875 0.6640625 -4.140625 2.1875 q-0.95703125 0.68359375 -2.265625 2.265625 l-0.078125 0 q-0.13671875 -0.078125 -0.3125 -0.078125 l0 0.078125 l-0.15625 -0.078125 l-0.3125 0.3125 l-0.078125 0 q0 -0.3515625 0.390625 -0.546875 q1.73828125 -2.96875 6.796875 -4.765625 z M24.29691875 13.359000000000002 l0.078125 0 q0.234375 0 0.234375 1.09375 q-0.078125 0.9765625 -0.078125 1.015625 l0.078125 0 q-0.15625 0.390625 -0.625 3.75 q-1.40625 6.484375 -1.40625 19.453125 q0 0.390625 -0.859375 0.859375 l-0.3125 -0.3125 l-0.078125 0 l0 0.23438 q-0.078125 0 -0.078125 -0.078125 l-0.15625 0.078125 l-0.078125 0 q0 -0.390625 -0.15625 -0.390625 l0.078125 -0.15625 l-0.078125 -0.15625 l0.078125 0 l-0.078125 -0.15625 l0 -0.23438 q0 -0.078125 0.078125 -0.078125 q-0.15625 -0.29296875 -0.15625 -0.625 l0 -1.4063 q0 -0.078125 -0.078125 -0.078125 l0.078125 -0.15625 l0 -0.078125 q0 -0.078125 -0.078125 -0.078125 l0.078125 -0.15625 l0 -0.078125 q0 -0.078125 -0.078125 -0.078125 l0.078125 -0.15625 l0 -1.0156 q0 -0.078125 -0.078125 -0.078125 l0.078125 -0.15625 l0 -0.78125 q0 -0.078125 0.078125 -0.078125 q0 -0.078125 -0.078125 -0.078125 l0.078125 -0.39063 l0 -1.3281 l0.078125 -0.15625 l-0.078125 0 q0.078125 -0.859375 0.15625 -0.859375 q0 -0.078125 -0.078125 -0.078125 q0.09765625 -0.99609375 0.15625 -1.09375 q-0.078125 0 -0.078125 -0.078125 q0.078125 0 0.078125 -0.078125 l-0.078125 0 q0.078125 -0.625 0.15625 -0.625 q0 -0.078125 -0.078125 -0.078125 q0.09765625 -0.72265625 0.15625 -0.9375 l-0.078125 0 q0.078125 -0.46875 0.15625 -0.46875 l-0.078125 -0.15625 l0.078125 -0.15625 l-0.078125 0 l0.15625 -0.625 l-0.078125 0 q0.703125 -4.6484375 1.171875 -5.859375 q0 -0.078125 -0.078125 -0.078125 q0 -0.21484375 0.234375 -0.703125 l-0.078125 0 q0.33203125 -1.25 0.46875 -1.484375 q-0.078125 0 -0.078125 -0.078125 q0.078125 0 0.078125 -0.078125 q-0.078125 0 -0.078125 -0.078125 q0.15625 0 0.15625 -0.15625 l0 -0.078125 l-0.078125 -0.15625 q0.1171875 0 0.546875 -1.953125 l-0.078125 0 q0.15625 -0.25390625 0.15625 -0.78125 l0.15625 0.078125 q0 -1.2109375 0.46875 -1.328125 z M23.04691875 14.297 l0.078125 0 l0.15625 0.078125 q0 0.76171875 -0.859375 4.609375 l0.078125 0 q-1.015625 3.45703125 -1.484375 8.28125 q0 0.2734375 -0.078125 0.703125 l0.078125 0 l-0.15625 0.46875 l0.078125 0 l-0.078125 0.15625 q-0.234375 3.59375 -0.234375 5.46875 q-0.078125 0 -0.078125 0.078125 l0.078125 0 l-0.078125 0.15625 l0 0.15625 q0 0.234375 0.078125 0.234375 l-0.078125 0.39063 l0 1.9531 q0 0.078125 0.078125 0.078125 l-0.078125 0.15625 l0 1.1719 l0.078125 0.15625 l-0.078125 0 q0.15625 0.5078125 0.15625 1.328125 q-0.15625 0.078125 -0.234375 0.078125 q-0.625 -0.703125 -0.625 -3.203125 l0 -0.078125 l-0.078125 -0.15625 l0.078125 0 l-0.078125 -0.15625 l0 -2.5 q0 -0.078125 0.078125 -0.078125 l-0.078125 -0.15625 q0.078125 -0.15625 0.078125 -0.234375 l-0.078125 0 q0.078125 -0.15625 0.078125 -0.234375 q0 -2.40234375 0.546875 -7.1875 l-0.078125 0 q0.13671875 -0.25390625 0.234375 -0.859375 l-0.078125 0 q0 -0.68359375 2.34375 -10.234375 l0 -0.3125 l0.15625 0.078125 q0.078125 -0.13671875 0.078125 -0.390625 z M35.7617625 7.421999999999997 q2.34375 0.390625 2.34375 3.046875 l0 0.15625 q0 1.23046875 -0.546875 1.328125 l-0.078125 0 q-0.05859375 -0.546875 -0.15625 -0.546875 l0.15625 -0.39063 q0 -1.5625 -1.015625 -2.1875 q-0.3125 -0.0390625 -0.3125 -0.234375 l-0.15625 0.078125 q-0.13671875 -0.078125 -0.3125 -0.078125 l0 0.15625 q0.17578125 0 0.390625 0.390625 l-0.078125 0 q0.78125 1.11328125 0.78125 2.265625 l0 0.78125 q0 0.15625 -0.15625 0.15625 l-0.15625 -0.54688 q0 -0.078125 0.078125 -0.078125 q0 -2.01171875 -1.484375 -2.65625 q-0.3125 -0.078125 -0.546875 -0.078125 q-0.95703125 0 -1.328125 0.78125 q-0.3125 0.46875 -0.3125 0.625 q0.078125 0 0.078125 0.078125 q-0.2734375 0 -0.703125 1.171875 q0.078125 0 0.078125 0.078125 q-0.2734375 0 -0.78125 2.109375 q0.078125 0 0.078125 0.078125 q-0.25390625 0.01953125 -0.546875 1.953125 q-1.171875 6.23046875 -1.171875 11.484375 q-0.078125 0 -0.078125 1.171875 l-0.078125 0 q0 0.078125 0.078125 0.078125 q0 0.0390625 -0.078125 0.3125 q0 1.0546875 -0.078125 3.671875 q0 5.625 2.265625 5.625 l0.078125 0 q1.81640625 0 3.671875 -2.109375 l1.0156 -0.85938 q0.15625 0.078125 0.234375 0.078125 q-0.46875 1.62109375 -2.65625 3.203125 q-2.5390625 1.484375 -4.0625 1.484375 l-0.3125 0 q-2.0703125 0 -2.96875 -2.8125 q-0.390625 -1.69921875 -0.390625 -4.140625 q0 -0.078125 -0.078125 -0.078125 l0.078125 -0.15625 q0 -4.39453125 1.484375 -15.078125 q0.703125 -3.18359375 1.171875 -4.21875 l0.078125 0 l-0.078125 -0.15625 l0.15625 -0.078125 l-0.078125 -0.15625 l0 -0.078125 l0.15625 0.078125 q0 -0.17578125 0.078125 -0.3125 q-0.078125 0 -0.078125 -0.078125 q0.13671875 -0.09765625 1.25 -2.34375 l0.15625 -0.078125 l0.078125 0.15625 l-0.39063 0.625 l0 0.078125 l0.078125 0 q0.37109375 -1.15234375 3.125 -3.203125 q1.0546875 -0.546875 2.03125 -0.546875 z M30.5273625 12.187000000000001 q0 0.21484375 -0.15625 0.46875 l0.15625 0 l0.078125 -0.39063 l0 -0.078125 l-0.078125 0 z M30.2929625 12.734000000000002 l0.078125 0.15625 q-0.1171875 0 -0.234375 0.3125 q0.078125 0 0.078125 0.078125 l-0.15625 0 l0.078125 0.15625 q-0.15625 0.01953125 -0.15625 0.15625 q0.078125 0 0.078125 0.078125 l-0.15625 0 q0 0.078125 0.078125 0.078125 q-0.25390625 0.41015625 -0.46875 1.328125 q0.078125 0 0.078125 0.078125 q-0.3515625 0 -0.9375 3.90625 q-0.078125 0 -0.15625 0.546875 l0.078125 0 l-0.23438 1.0938 l0.078125 0 l-0.15625 0.70313 l0.078125 0 q-0.15625 0.7421875 -0.390625 3.4375 l0.078125 0 q-0.078125 0.13671875 -0.15625 0.9375 l0.078125 0 q-0.15625 0.234375 -0.3125 3.359375 q0.078125 0 0.078125 0.078125 q-0.15625 0.01953125 -0.15625 0.15625 l0.23438 0 l0.078125 -0.46875 q-0.078125 0 -0.078125 -0.078125 q0.078125 0 0.078125 -0.078125 l-0.078125 0 l0.078125 -0.15625 l0.23438 -3.5938 q-0.078125 0 -0.078125 -0.078125 q0.15625 0 0.15625 -0.15625 l0 -0.3125 q0 -0.078125 -0.078125 -0.078125 q0.13671875 -0.5078125 0.46875 -3.125 l-0.078125 0 l0.23438 -1.0938 l-0.078125 0 q0.703125 -4.3359375 1.71875 -7.265625 q0.078125 0 0.078125 -0.15625 l-0.15625 0 z M27.5585625 29.609 l0.078125 0.15625 q-0.078125 0 -0.078125 0.078125 q0.078125 0 0.078125 0.078125 q-0.078125 0 -0.078125 0.078125 l0.078125 0 l-0.078125 0.15625 l0 0.15625 q0 0.078125 0.078125 0.078125 q-0.15625 0.44921875 -0.15625 1.71875 l0.078125 0 q-0.078125 0.15625 -0.078125 0.234375 l0 0.85938 l0.078125 0 q0.078125 -2.44140625 0.234375 -3.75 l-0.078125 0 q-0.15625 0.01953125 -0.15625 0.15625 z M27.4804625 33.4375 l0 0.85938 l0.078125 0 l0 -0.85938 l-0.078125 0 z M27.4804625 35.7812 l0 0.078125 q0.13671875 1.11328125 0.390625 1.71875 l0.078125 0 q0 -0.13671875 -0.15625 -0.625 l0.078125 0 q-0.234375 -0.52734375 -0.3125 -1.171875 l-0.078125 0 z M28.7304625 37.8906 l0 0.078125 q0.13671875 0.3125 0.3125 0.3125 l0 0.078125 l-0.078125 0.15625 l0.15625 -0.078125 l0.078125 0 l-0.078125 0.15625 l0 0.078125 l0.39063 0.078125 q-0.546875 -0.76171875 -0.78125 -0.859375 z M47.5586375 7.421999999999997 q2.34375 0.390625 2.34375 3.046875 l0 0.15625 q0 1.23046875 -0.546875 1.328125 l-0.078125 0 q-0.05859375 -0.546875 -0.15625 -0.546875 l0.15625 -0.39063 q0 -1.5625 -1.015625 -2.1875 q-0.3125 -0.0390625 -0.3125 -0.234375 l-0.15625 0.078125 q-0.13671875 -0.078125 -0.3125 -0.078125 l0 0.15625 q0.17578125 0 0.390625 0.390625 l-0.078125 0 q0.78125 1.11328125 0.78125 2.265625 l0 0.78125 q0 0.15625 -0.15625 0.15625 l-0.15625 -0.54688 q0 -0.078125 0.078125 -0.078125 q0 -2.01171875 -1.484375 -2.65625 q-0.3125 -0.078125 -0.546875 -0.078125 q-0.95703125 0 -1.328125 0.78125 q-0.3125 0.46875 -0.3125 0.625 q0.078125 0 0.078125 0.078125 q-0.2734375 0 -0.703125 1.171875 q0.078125 0 0.078125 0.078125 q-0.2734375 0 -0.78125 2.109375 q0.078125 0 0.078125 0.078125 q-0.25390625 0.01953125 -0.546875 1.953125 q-1.171875 6.23046875 -1.171875 11.484375 q-0.078125 0 -0.078125 1.171875 l-0.078125 0 q0 0.078125 0.078125 0.078125 q0 0.0390625 -0.078125 0.3125 q0 1.0546875 -0.078125 3.671875 q0 5.625 2.265625 5.625 l0.078125 0 q1.81640625 0 3.671875 -2.109375 l1.0156 -0.85938 q0.15625 0.078125 0.234375 0.078125 q-0.46875 1.62109375 -2.65625 3.203125 q-2.5390625 1.484375 -4.0625 1.484375 l-0.3125 0 q-2.0703125 0 -2.96875 -2.8125 q-0.390625 -1.69921875 -0.390625 -4.140625 q0 -0.078125 -0.078125 -0.078125 l0.078125 -0.15625 q0 -4.39453125 1.484375 -15.078125 q0.703125 -3.18359375 1.171875 -4.21875 l0.078125 0 l-0.078125 -0.15625 l0.15625 -0.078125 l-0.078125 -0.15625 l0 -0.078125 l0.15625 0.078125 q0 -0.17578125 0.078125 -0.3125 q-0.078125 0 -0.078125 -0.078125 q0.13671875 -0.09765625 1.25 -2.34375 l0.15625 -0.078125 l0.078125 0.15625 l-0.39063 0.625 l0 0.078125 l0.078125 0 q0.37109375 -1.15234375 3.125 -3.203125 q1.0546875 -0.546875 2.03125 -0.546875 z M42.3242375 12.187000000000001 q0 0.21484375 -0.15625 0.46875 l0.15625 0 l0.078125 -0.39063 l0 -0.078125 l-0.078125 0 z M42.0898375 12.734000000000002 l0.078125 0.15625 q-0.1171875 0 -0.234375 0.3125 q0.078125 0 0.078125 0.078125 l-0.15625 0 l0.078125 0.15625 q-0.15625 0.01953125 -0.15625 0.15625 q0.078125 0 0.078125 0.078125 l-0.15625 0 q0 0.078125 0.078125 0.078125 q-0.25390625 0.41015625 -0.46875 1.328125 q0.078125 0 0.078125 0.078125 q-0.3515625 0 -0.9375 3.90625 q-0.078125 0 -0.15625 0.546875 l0.078125 0 l-0.23438 1.0938 l0.078125 0 l-0.15625 0.70313 l0.078125 0 q-0.15625 0.7421875 -0.390625 3.4375 l0.078125 0 q-0.078125 0.13671875 -0.15625 0.9375 l0.078125 0 q-0.15625 0.234375 -0.3125 3.359375 q0.078125 0 0.078125 0.078125 q-0.15625 0.01953125 -0.15625 0.15625 l0.23438 0 l0.078125 -0.46875 q-0.078125 0 -0.078125 -0.078125 q0.078125 0 0.078125 -0.078125 l-0.078125 0 l0.078125 -0.15625 l0.23438 -3.5938 q-0.078125 0 -0.078125 -0.078125 q0.15625 0 0.15625 -0.15625 l0 -0.3125 q0 -0.078125 -0.078125 -0.078125 q0.13671875 -0.5078125 0.46875 -3.125 l-0.078125 0 l0.23438 -1.0938 l-0.078125 0 q0.703125 -4.3359375 1.71875 -7.265625 q0.078125 0 0.078125 -0.15625 l-0.15625 0 z M39.3554375 29.609 l0.078125 0.15625 q-0.078125 0 -0.078125 0.078125 q0.078125 0 0.078125 0.078125 q-0.078125 0 -0.078125 0.078125 l0.078125 0 l-0.078125 0.15625 l0 0.15625 q0 0.078125 0.078125 0.078125 q-0.15625 0.44921875 -0.15625 1.71875 l0.078125 0 q-0.078125 0.15625 -0.078125 0.234375 l0 0.85938 l0.078125 0 q0.078125 -2.44140625 0.234375 -3.75 l-0.078125 0 q-0.15625 0.01953125 -0.15625 0.15625 z M39.2773375 33.4375 l0 0.85938 l0.078125 0 l0 -0.85938 l-0.078125 0 z M39.2773375 35.7812 l0 0.078125 q0.13671875 1.11328125 0.390625 1.71875 l0.078125 0 q0 -0.13671875 -0.15625 -0.625 l0.078125 0 q-0.234375 -0.52734375 -0.3125 -1.171875 l-0.078125 0 z M40.5273375 37.8906 l0 0.078125 q0.13671875 0.3125 0.3125 0.3125 l0 0.078125 l-0.078125 0.15625 l0.15625 -0.078125 l0.078125 0 l-0.078125 0.15625 l0 0.078125 l0.39063 0.078125 q-0.546875 -0.76171875 -0.78125 -0.859375 z M54.1797125 35.4883 q-2.2265625 -0.0390625 -3.33984375 -5.33203125 q-0.2734375 -2.03125 -0.33203125 -4.58984375 q0 -0.078125 0.078125 -0.078125 q0 -0.78125 0.13671875 -2.265625 q0.17578125 -1.77734375 0.56640625 -3.2421875 l-0.078125 0 l0.76172 -2.2852 l-0.078125 0 q0.17578125 -0.234375 0.8203125 -1.89453125 l0.13672 0.097656 q-0.05859375 -0.1171875 -0.05859375 -0.234375 l0.15625 0.097656 q0 -0.09765625 0.09765625 -0.234375 l-0.078125 0 q0 0.05859375 -0.05859375 0.05859375 l-0.019531 0 l0 -0.078125 q0.09765625 -0.13671875 0.09765625 -0.21484375 l0.15625 0.078125 q0.01953125 -0.17578125 0.64453125 -1.03515625 q0.25390625 -0.95703125 0.546875 -0.95703125 l0.019531 0 l-0.019531 0.15625 l0.078125 0 q0.01953125 -0.21484375 0.703125 -0.78125 q0.1953125 -0.2734375 0.83984375 -0.46875 q0.1953125 -0.52734375 1.66015625 -0.859375 l0.9375 -0.078125 q0.87890625 0.09765625 1.97265625 1.5234375 q1.34765625 2.578125 1.34765625 6.9921875 q0 1.62109375 -0.17578125 3.49609375 q-0.29296875 3.10546875 -1.07421875 5.546875 l0.078125 0 l-1.25 3.1836 q-0.859375 1.62109375 -2.03125 2.3046875 l-0.27344 0.29297 l0.078125 0 q0.01953125 -0.05859375 0.078125 -0.05859375 l0.019531 0 l-0.019531 0.15625 q-0.17578125 -0.01953125 -0.3125 -0.1171875 l0 0.078125 q0.05859375 0.01953125 0.05859375 0.05859375 l0 0.019531 q-2.24609375 0.6640625 -2.87109375 0.6640625 z M60.3128125 16.699 l0 -0.078125 l-0.11719 -0.23438 l0.078125 -0.15625 l-0.15625 -0.019531 q0.1171875 -0.15625 0.1171875 -0.25390625 q0 -0.1953125 -0.21484375 -0.21484375 q0 -0.078125 0.078125 -0.078125 q0 -0.3125 -0.1953125 -0.33203125 l0 -0.078125 l0.097656 -0.15625 q-0.1171875 0 -0.21484375 -0.25390625 l0.019531 0 q0.05859375 0 0.078125 -0.05859375 q-0.17578125 -0.25390625 -0.29296875 -0.2734375 l0.097656 -0.13672 q-0.91796875 -1.73828125 -1.640625 -1.81640625 q0.4296875 0.6640625 0.56640625 0.68359375 q0 -0.078125 0.078125 -0.078125 l0.058594 0.17578 l-0.15625 -0.019531 q0.234375 0.48828125 0.3515625 0.5078125 l0 -0.078125 q-0.17578125 -0.01953125 -0.1953125 -0.41015625 q0.68359375 0.9375 0.859375 1.640625 q-0.078125 0 -0.078125 0.078125 q0.2734375 0.0390625 0.2734375 0.390625 l0 0.097656 q-0.078125 0 -0.09765625 0.078125 l0.078125 0 q0.01953125 -0.05859375 0.078125 -0.05859375 l0.078125 0.15625 l-0.17578 0.058594 l0 -0.019531 q0 -0.05859375 -0.05859375 -0.05859375 l-0.019531 0.078125 q0.0390625 0 0.234375 0.17578125 l0 -0.078125 q-0.078125 0 -0.078125 -0.078125 l0.15625 0.019531 l0 0.039063 q0 0.2734375 0.234375 0.76171875 q-0.078125 0 -0.078125 0.05859375 z M56.3672125 33.8281 q-0.05859375 -0.17578125 -0.05859375 -0.234375 l0.15625 0.078125 l0.44922 -0.66406 l-0.078125 0 q-0.234375 0.5078125 -0.5078125 0.5078125 l0 -0.078125 q0.72265625 -0.76171875 1.71875 -3.14453125 l-0.078125 0 q1.015625 -2.32421875 1.30859375 -5.44921875 q0.2734375 -2.51953125 0.2734375 -3.65234375 q0 -4.23828125 -1.7578125 -7.55859375 q-0.703125 -0.80078125 -1.1328125 -0.80078125 q-0.72265625 0 -1.11328125 1.2109375 q-0.078125 0 -0.17578125 0.21484375 q0.078125 0.01953125 0.078125 0.09765625 q-0.3125 0 -1.25 3.0078125 q-0.48828125 1.89453125 -0.68359375 3.9453125 q-0.2734375 2.75390625 -0.2734375 4.0234375 q0 4.43359375 1.640625 7.63671875 q0.625 0.78125 1.09375 0.8203125 l0.019531 -0.078125 l0.13672 0.097656 l0.17578 -0.078125 l0 0.019531 q0 0.05859375 0.05859375 0.078125 z M57.5586125 32.8516 q0.48828125 -0.33203125 1.34765625 -2.4609375 l-0.078125 -0.019531 l0.27344 -0.44922 l-0.078125 0 l0.19531 -0.29297 l-0.078125 0 l0.17578 -0.3125 l-0.078125 0 q0.29296875 -0.703125 0.703125 -2.36328125 q-0.05859375 0 -0.05859375 -0.05859375 l0.039063 0 q0.0390625 -0.01953125 0.0390625 -0.09765625 l-0.078125 0 q0.15625 -0.83984375 0.234375 -0.83984375 q-0.05859375 -0.17578125 -0.05859375 -0.25390625 q0.1171875 -0.21484375 0.1953125 -0.21484375 l-0.078125 -0.15625 q0.0390625 -0.15625 0.09765625 -0.15625 q-0.01953125 -0.625 -0.09765625 -0.64453125 q0.1171875 -0.37109375 0.1953125 -0.37109375 l-0.058594 -0.15625 l0.097656 -1.0156 l0.097656 -0.13672 l-0.15625 -0.019531 l0 -0.078125 l0.15625 0.019531 q0 -0.13671875 -0.05859375 -0.25390625 l0.019531 0 q0.05859375 0 0.078125 -0.05859375 l-0.078125 -0.019531 q-0.01953125 0.078125 -0.09765625 0.078125 l0.078125 -0.78125 l0.097656 -0.13672 l-0.15625 -0.019531 q0.17578125 -0.17578125 0.17578125 -0.21484375 l-0.078125 -0.019531 q0 0.078125 -0.078125 0.078125 l0 -0.15625 l0.15625 0.019531 l0.019531 -0.078125 l-0.15625 -0.019531 q0 -0.078125 0.078125 -0.078125 l-0.058594 -0.15625 l0.097656 -0.15625 l-0.078125 0 q-0.01953125 0.078125 -0.09765625 0.078125 l-0.058594 -0.17578 l0.23438 0.019531 l0.019531 -0.078125 l-0.15625 0 l0.078125 -0.15625 q-0.05859375 0 -0.05859375 -0.05859375 l0 -0.019531 l0.078125 0 q-0.1171875 -0.234375 -0.1171875 -0.37109375 l0 -0.039063 l0.019531 0 q0.05859375 0 0.05859375 -0.05859375 q-0.078125 -0.01953125 -0.078125 -0.09765625 l0.078125 0.019531 q-0.0390625 -0.234375 -0.1171875 -0.25390625 q0.05859375 -0.09765625 0.09765625 -0.21484375 l-0.15625 -0.019531 l0.097656 -0.15625 l-0.078125 -0.15625 l0.039063 -0.23438 l-0.078125 0 l0.097656 -0.23438 l-0.078125 0 l-0.019531 0.15625 l-0.078125 -0.019531 l0 -0.15625 q0 -0.390625 -0.13671875 -0.80078125 l-0.078125 0 l0.097656 -0.23438 l-0.15625 0 l0.019531 -0.15625 l0.13672 0.078125 l0.097656 -0.13672 l-0.078125 -0.019531 q0 0.078125 -0.078125 0.078125 l-0.72266 -2.4219 q0.078125 0 0.09765625 -0.078125 l-0.078125 0 q-0.01953125 0.05859375 -0.078125 0.05859375 l-0.019531 0 l0 -0.039063 q0 -0.15625 -0.17578125 -0.44921875 l0.019531 0 q0.05859375 0 0.05859375 -0.05859375 q-0.09765625 -0.01953125 -0.83984375 -1.03515625 l0 0.078125 q1.6796875 2.3828125 1.7578125 8.57421875 l-0.078125 0 l0.058594 0.15625 l-0.078125 0.70313 q0 0.17578125 0.05859375 0.3125 q-0.01953125 0.078125 -0.09765625 0.078125 q0.01953125 0.78125 0.09765625 0.78125 l-0.097656 0.15625 q-0.09765625 1.07421875 -0.17578125 1.07421875 l-0.019531 0 l0.078125 0.17578 q-0.01953125 0.15625 -0.1171875 0.29296875 q0.078125 0.01953125 0.078125 0.09765625 l-0.078125 -0.019531 l0 0.019531 q0 0.05859375 0.05859375 0.078125 q-0.1953125 1.97265625 -1.5625 5.56640625 q0.078125 0.01953125 0.078125 0.09765625 q-0.09765625 0 -0.68359375 1.26953125 z M59.0625125 14.140999999999998 l0.019531 -0.13672 l-0.13672 -0.097656 q0.0390625 0.1171875 0.0390625 0.1953125 l0 0.039063 l0.078125 0 z M53.9648125 15.059000000000001 q0.01953125 -0.17578125 0.29296875 -0.5859375 l-0.078125 -0.019531 q-0.1171875 0 -0.3515625 0.37109375 q0.05859375 0.15625 0.05859375 0.234375 l0.078125 0 z M52.3828125 32.8125 q-0.5859375 -1.6796875 -0.859375 -4.00390625 q0.078125 0 0.078125 -0.078125 q-0.05859375 0 -0.05859375 -0.05859375 l0 -0.019531 l0.078125 0 q-0.15625 -0.80078125 -0.15625 -1.46484375 q0 -0.3125 0.0390625 -0.5859375 q0.078125 0 0.078125 -0.078125 q-0.13671875 0 -0.13671875 -0.1171875 l0 -0.039063 l0.078125 0 q-0.0390625 -0.17578125 -0.05859375 -1.03515625 l0.078125 0.019531 l-0.058594 -0.15625 q0.01953125 -0.21484375 0.1171875 -0.390625 q-0.078125 0 -0.078125 -0.078125 l0.078125 0 l-0.058594 -0.15625 l0.097656 -1.0156 q0 -0.078125 -0.078125 -0.078125 l0.097656 -0.15625 q0.1171875 -1.15234375 0.17578125 -1.15234375 l0.019531 0 q-0.05859375 -0.1171875 -0.05859375 -0.25390625 l0.097656 -0.13672 l-0.078125 -0.019531 q0.09765625 -0.17578125 0.234375 -0.76171875 l-0.078125 0 l0.21484 -0.60547 l-0.078125 -0.019531 l0.23438 -0.76172 l-0.078125 0 q0.1953125 -0.37109375 0.1953125 -0.52734375 l-0.078125 0 l0.19531 -0.3125 l-0.078125 0 q0.09765625 -0.21484375 0.15625 -0.21484375 l0.019531 0 l-0.058594 -0.15625 q0.87890625 -2.5 1.25 -3.18359375 q-0.05859375 -0.15625 -0.05859375 -0.234375 l-0.078125 -0.019531 q-0.01953125 0.13671875 -0.390625 0.7421875 q0.078125 0.01953125 0.078125 0.09765625 q-0.1953125 0 -0.8984375 2.03125 l-0.019531 0.078125 q0.078125 0 0.078125 0.078125 q-0.4296875 0 -1.11328125 4.921875 l-0.019531 0.15625 l0.078125 0.15625 l-0.17578 0.058594 l0.058594 0.17578 l-0.15625 0.91797 l0.078125 0.019531 l-0.097656 0.13672 l0.058594 0.15625 q-0.078125 0 -0.078125 0.078125 l0.078125 0 q-0.09765625 0.17578125 -0.1171875 0.390625 l0.058594 0.15625 l-0.078125 0 q0.0390625 0.46875 0.1171875 0.48828125 q-0.01953125 0.05859375 -0.078125 0.05859375 l-0.019531 0 q-0.0390625 0.5078125 -0.0390625 1.03515625 q0 2.3828125 0.91796875 5.41015625 q0.17578125 0.46875 0.33203125 0.5078125 z M60.5078125 17.91 l-0.058594 -0.17578 l0.097656 -0.13672 l-0.078125 -0.019531 l-0.097656 0.15625 q0 0.15625 0.13671875 0.17578125 z M52.6367125 31.8945 q-0.0390625 -0.09765625 -0.0390625 -0.234375 l0 -0.078125 l-0.078125 -0.019531 l-0.039063 0.23438 z M53.9648125 34.2969 l0.019531 -0.078125 q-0.25390625 -0.09765625 -1.23046875 -1.9921875 q0.078125 0 0.09765625 -0.078125 l-0.21484 -0.17578 l-0.019531 0.078125 q0.64453125 2.1875 1.34765625 2.24609375 z M52.4414125 33.125 l0 -0.11719 q0 -0.1171875 -0.13671875 -0.13671875 l0 0.078125 q0 0.17578125 0.13671875 0.17578125 z M52.6367125 33.457 l0.019531 -0.078125 q-0.1953125 -0.17578125 -0.234375 -0.17578125 l0 0.078125 z M56.1328125 39.74609 q-1.85546875 0 -3.37890625 -0.15625 q-1.85546875 -0.17578125 -2.01171875 -0.17578125 q-0.3515625 0 -1.03515625 0.0390625 l-0.058594 -0.15625 l0.019531 -0.23438 l0.13672 0.097656 l0.078125 0 l-0.058594 -0.15625 q0.1171875 0 0.72265625 -0.09765625 l-0.078125 -0.15625 q0.234375 -0.33203125 0.5859375 -0.33203125 l0.078125 0 l-0.058594 -0.15625 q0.01953125 -0.17578125 1.484375 -0.17578125 q0.87890625 0 2.28515625 0.05859375 l0.019531 -0.078125 l0.13672 0.097656 l2.1875 0.21484 q1.7578125 0.17578125 1.7578125 0.48828125 l-0.097656 0.13672 l0.15625 0.019531 l0 0.078125 l-0.019531 0 q-0.15625 0 -0.33203125 0.29296875 q-0.859375 0 -1.3671875 0.33203125 z M75.8208125 39.70703 l-0.15625 0 q-2.578125 0 -5.41015625 -10.60546875 l0.078125 0 q-2.265625 -9.296875 -3.0078125 -15.546875 l-0.078125 0.019531 l0.058594 -0.17578 q-0.01953125 -0.15625 -0.17578125 -0.91796875 l-0.078125 0.019531 q-0.2734375 1.6796875 -0.546875 4.0625 q0.078125 0 0.078125 0.078125 q-0.21484375 0.01953125 -0.33203125 3.80859375 q0.15625 5.078125 0.15625 8.59375 q0 5.8203125 -0.41015625 7.40234375 q-0.4296875 1.34765625 -0.95703125 1.85546875 l-0.078125 0 l-0.019531 -0.15625 q-0.17578125 0.17578125 -0.21484375 0.17578125 l-0.097656 -0.13672 q0.703125 -1.54296875 0.703125 -6.0546875 l0 -0.72266 l-0.078125 0.019531 l0.039063 -0.95703 l-0.078125 0.019531 q0.0390625 -0.41015625 0.1171875 -0.41015625 l-0.097656 -0.13672 q0 -0.13671875 0.05859375 -0.25390625 l-0.019531 0 q-0.05859375 0 -0.078125 -0.05859375 q0.078125 -0.01953125 0.078125 -0.09765625 l-0.078125 0.019531 l0.058594 -0.17578 q-0.1171875 -1.42578125 -0.1171875 -2.109375 q0 -0.41015625 0.0390625 -0.546875 q-0.078125 0 -0.078125 -0.078125 l0.078125 0 q-0.01953125 -0.078125 -0.09765625 -0.078125 q0 -0.703125 0.078125 -0.703125 q-0.078125 -0.1171875 -0.1171875 -0.234375 l0.058594 -0.15625 l-0.058594 0 l0.058594 -0.15625 q-0.01953125 -0.17578125 -0.1171875 -0.3125 q0.05859375 0 0.05859375 -0.05859375 l0 -0.019531 l-0.15625 0.019531 l0 -0.078125 q0.21484375 -0.01953125 0.21484375 -0.15625 l0 -0.019531 l-0.078125 0 l0.058594 -0.15625 q-0.0390625 -0.15625 -0.09765625 -0.15625 q0 -0.703125 0.078125 -0.72265625 l-0.097656 -0.13672 q0.0390625 -0.1171875 0.0390625 -0.1953125 l0 -0.039063 l-0.078125 0 q0.0390625 -0.3125 0.13671875 -0.33203125 q-0.09765625 -0.13671875 -0.1171875 -0.21484375 q0.05859375 -0.15625 0.05859375 -0.25390625 l-0.078125 0.019531 l0.097656 -0.41016 l-0.019531 0 q-0.05859375 0 -0.05859375 -0.05859375 q0.05859375 -0.01953125 0.05859375 -0.078125 l0 -0.019531 l-0.078125 0.019531 q0.01953125 -0.56640625 0.09765625 -0.56640625 l-0.097656 -0.19531 q0 -0.15625 0.09765625 -0.5078125 l-0.078125 0 l0.078125 -0.72266 l-0.078125 0.019531 q0.09765625 -2.55859375 0.4296875 -4.375 l-0.078125 0 q0.3515625 -2.36328125 0.78125 -4.7265625 q-0.078125 0 -0.09765625 -0.078125 q0.13671875 0 0.3515625 -1.1328125 l-0.019531 -0.078125 l-0.078125 0.019531 q-0.01953125 0.546875 -0.234375 0.56640625 q0 0.078125 0.078125 0.078125 q-0.64453125 1.89453125 -1.15234375 6.89453125 q-0.3125 3.125 -0.3125 5.5859375 q0 1.73828125 0.15625 3.1640625 l0.019531 0 q0.05859375 0 0.05859375 0.05859375 q-0.13671875 0.01953125 -0.13671875 0.078125 l0.11719 1.7383 q-0.05859375 0.01953125 -0.05859375 0.078125 l0 0.019531 l0.078125 -0.019531 q0.078125 2.3828125 0.078125 4.2578125 q0 5.72265625 -0.76171875 6.6796875 l-0.078125 0.019531 q0.29296875 -1.58203125 0.29296875 -2.01171875 l0 -0.078125 q-0.078125 0 -0.078125 -0.078125 l0.15625 0 l-0.097656 -0.15625 q0.078125 -1.46484375 0.078125 -3.203125 q0 -1.50390625 -0.05859375 -3.2421875 l-0.078125 0 l0.078125 -0.15625 q-0.01953125 -0.234375 -0.1171875 -0.234375 l0 -0.46875 q0 -1.4453125 -0.15625 -5.56640625 l-0.078125 0.019531 q0 -6.03515625 0.4296875 -7.8515625 l-0.078125 0.019531 l0.68359 -4.2578 l-0.019531 0 q-0.05859375 0 -0.078125 -0.05859375 q0.078125 -0.01953125 0.33203125 -1.30859375 l-0.078125 0.019531 q0.09765625 -0.80078125 0.29296875 -0.8203125 q-0.078125 -0.1171875 -0.1171875 -0.234375 q0.1953125 -0.01953125 0.1953125 -0.25390625 l0 -0.078125 l-0.019531 0 q-0.05859375 0 -0.05859375 -0.05859375 l0.15625 -0.019531 l-0.097656 -0.15625 l0 -0.078125 l0.15625 0.058594 l0 -0.019531 q0 -0.17578125 0.2734375 -0.25390625 q0.078125 0 0.09765625 0.078125 q-0.21484375 0.01953125 -0.21484375 0.15625 l0 0.019531 l0.39063 -0.039063 l-0.039063 -0.3125 l0.23438 -0.019531 l0.11719 0.29297 l0.078125 0 q0.83984375 -1.50390625 1.42578125 -1.50390625 q0.76171875 0 1.11328125 3.1640625 q1.07421875 7.109375 1.8359375 11.50390625 q0.078125 0 0.078125 0.078125 l-0.078125 0 l0.097656 0.15625 q3.02734375 16.015625 6.07421875 16.015625 l0.13672 0 q0.25390625 -0.01953125 0.52734375 -0.83984375 l-0.078125 0 q-0.078125 0.33203125 -0.1953125 0.3515625 q-0.078125 0 -0.09765625 -0.078125 q0.87890625 -1.5234375 0.9375 -5.52734375 q0.05859375 -0.1953125 0.09765625 -1.19140625 l-0.078125 0 l0.13672 -3.3984 l-0.078125 0 q0.09765625 -0.5859375 0.1171875 -3.7890625 l-0.078125 0.019531 q0.1171875 -0.234375 0.15625 -3.9453125 l-0.058594 0 l0.058594 -0.72266 l-0.078125 0.019531 q0.05859375 -1.6796875 0.05859375 -3.28125 q0 -2.5 -0.13671875 -4.82421875 q0.078125 0 0.078125 -0.078125 l-0.078125 0.019531 l0.058594 -0.17578 l-0.097656 -0.78125 q-0.09765625 -0.83984375 -0.7421875 -2.34375 l-0.019531 -0.15625 l0.15625 -0.019531 q0.80078125 0.9765625 0.99609375 1.85546875 l-0.078125 0 l0.097656 0.15625 l0.078125 0.70313 q0.01953125 0.05859375 0.09765625 0.05859375 q-0.05859375 0.15625 -0.05859375 0.234375 l0.15625 0.625 l-0.078125 0 q0 0.078125 0.078125 0.078125 l0.078125 4.6289 l0.019531 0 q0.05859375 0 0.05859375 0.05859375 q-0.05859375 0.01953125 -0.05859375 0.078125 l0 0.019531 l0.019531 0 q0.05859375 0 0.05859375 0.05859375 q-0.13671875 0.01953125 -0.13671875 0.078125 l0 0.019531 q0.05859375 0.4296875 0.05859375 2.05078125 q0 2.12890625 -0.09765625 6.3671875 l0.078125 0 q-0.09765625 1.171875 -0.17578125 3.9453125 l0.078125 0 q-0.1171875 6.4453125 -0.78125 8.75 l0.078125 -0.019531 q0.390625 -0.8203125 0.56640625 -1.953125 l-0.019531 0 q-0.05859375 0 -0.078125 -0.05859375 q0.1953125 -0.0390625 0.1953125 -0.390625 l-0.019531 -0.19531 l-0.019531 0 q-0.05859375 0 -0.078125 -0.05859375 q0.234375 -0.0390625 0.234375 -1.19140625 l0 -0.17578 q0.078125 0 0.078125 -0.078125 l-0.078125 0 q0.09765625 -0.25390625 0.15625 -0.72265625 l-0.078125 0 q0.09765625 -0.5078125 0.1171875 -1.03515625 l-0.019531 0 q-0.05859375 0 -0.078125 -0.05859375 q0.078125 -0.01953125 0.078125 -0.09765625 l-0.078125 0.019531 q0.078125 -0.3515625 0.078125 -0.5078125 l0 -0.058594 l-0.078125 0.019531 q0.1171875 -0.3515625 0.1171875 -0.48828125 l-0.078125 0 l0.097656 -0.48828 l-0.019531 0 q-0.05859375 0 -0.078125 -0.05859375 q0.078125 -0.01953125 0.078125 -0.09765625 l-0.078125 0.019531 q0.01953125 -0.3125 0.1171875 -0.33203125 q-0.01953125 -0.05859375 -0.078125 -0.05859375 l-0.019531 0 q0.01953125 -0.48828125 0.1171875 -0.48828125 q-0.01953125 -0.078125 -0.09765625 -0.078125 q0.01953125 -0.703125 0.05859375 -0.859375 l-0.078125 0 q0.09765625 -0.3515625 0.09765625 -0.5078125 l0 -0.058594 l-0.078125 0.019531 q0.05859375 -0.17578125 0.1171875 -0.95703125 l-0.097656 -0.15625 l0.11719 -0.39063 l-0.078125 0 q0.078125 -0.41015625 0.078125 -0.5859375 l0 -0.058594 l-0.078125 0.019531 q0.09765625 -0.3515625 0.09765625 -0.5078125 l0 -0.058594 l-0.15625 0.019531 l-0.019531 -0.078125 q0.1953125 -0.01953125 0.1953125 -0.3125 l0 -0.097656 q-0.078125 0 -0.078125 -0.078125 q0.05859375 0 0.05859375 -0.078125 q-0.078125 0 -0.078125 -0.078125 l0.078125 0 l-0.097656 -0.15625 q0.09765625 -0.21484375 0.09765625 -0.46875 l-0.019531 -0.15625 q-0.078125 0 -0.09765625 -0.078125 q0.15625 -0.01953125 0.15625 -0.80078125 l-0.078125 0 q0.01953125 -0.390625 0.09765625 -0.390625 l-0.097656 -0.15625 q0.0390625 -0.3125 0.13671875 -0.33203125 q-0.09765625 -0.13671875 -0.1171875 -0.21484375 l0.058594 -0.15625 l-0.097656 -0.15625 q0.09765625 -0.25390625 0.15625 -0.80078125 q-0.01953125 -0.078125 -0.09765625 -0.078125 l0 -0.3125 q0 -0.390625 0.078125 -0.390625 q-0.0390625 -0.078125 -0.068359375 -0.15625 t-0.029297 -0.13672 q0 -0.25390625 0.1171875 -0.2734375 q-0.01953125 -0.05859375 -0.078125 -0.05859375 l-0.019531 0 q0.01953125 -0.546875 0.078125 -0.72265625 l-0.019531 0 q-0.05859375 0 -0.078125 -0.05859375 q0.078125 -0.01953125 0.078125 -0.09765625 l-0.078125 0.019531 q0.05859375 -0.15625 0.05859375 -0.80078125 l-0.078125 0.019531 q0.0390625 -0.33203125 0.1171875 -0.33203125 l-0.097656 -0.15625 q0.05859375 -0.1171875 0.05859375 -0.234375 q0 -0.078125 -0.078125 -0.078125 q0.01953125 -0.3125 0.1171875 -0.3125 l-0.097656 -0.15625 l0.019531 -0.46875 l-0.097656 -0.15625 q0.13671875 -0.01953125 0.13671875 -0.13671875 l0 -0.039063 l-0.078125 0.019531 q0.05859375 -0.15625 0.05859375 -0.80078125 l-0.078125 0.019531 q0.078125 -0.15625 0.078125 -0.80078125 l-0.078125 0 q0.01953125 -0.3125 0.1171875 -0.3125 l-0.097656 -0.15625 l0.058594 -0.15625 q-0.078125 0 -0.078125 -0.078125 q0.05859375 0 0.05859375 -0.05859375 l0 -0.019531 l-0.078125 0 q0.0390625 -0.17578125 0.0390625 -1.015625 l-0.078125 0 l0.058594 -0.15625 l-0.097656 -0.78125 l0.13672 -0.25391 l-0.039063 0 q-0.13671875 0 -0.13671875 -0.21484375 l0.11719 -0.25391 l-0.078125 0.019531 l0 0.019531 q0 0.05859375 -0.05859375 0.05859375 l-0.039063 -0.3125 l0.15625 -0.019531 l-0.019531 -0.078125 l-0.15625 0.019531 l0.13672 -0.23438 l-0.078125 0 q0 0.078125 -0.078125 0.078125 q0 -0.234375 0.13671875 -0.234375 l-0.21484 -0.44922 l0.15625 -0.019531 l0.039063 0.3125 l0.078125 -0.019531 l-0.058594 -0.46875 l-0.019531 0 q-0.05859375 0 -0.05859375 -0.05859375 l0.078125 -0.019531 q-0.60546875 -1.09375 -0.625 -1.25 q0.25390625 -0.15625 0.25390625 -0.4296875 l0 -0.078125 l0.54688 -0.058594 q0.72265625 0.2734375 1.11328125 2.7734375 q0.1953125 1.640625 0.1953125 6.328125 q0 5.9765625 -0.3125 16.89453125 l0.019531 0 q0.05859375 0 0.078125 0.05859375 q-0.1953125 0.0390625 -0.1953125 0.83984375 l0 0.29297 q-0.37109375 3.02734375 -1.66015625 4.58984375 q-0.95703125 0.859375 -1.7578125 1.15234375 q-0.41015625 0.44921875 -1.26953125 0.546875 z M75.6248125 38.6328 q-0.44921875 -0.48828125 -0.5859375 -0.48828125 l-0.019531 0 l0.058594 -0.15625 q-0.703125 -0.64453125 -1.69921875 -3.02734375 q-0.078125 0 -0.09765625 -0.078125 l0.078125 0 l-0.89844 -2.4219 l0.078125 0 q-0.33203125 -0.8203125 -1.015625 -3.18359375 l-0.078125 0 l0.058594 -0.15625 l-0.019531 -0.3125 l-0.078125 0 l0.039063 0.39063 l-0.15625 -0.058594 l0.058594 -0.15625 q-0.01953125 -0.078125 -0.09765625 -0.078125 q0.05859375 -0.15625 0.05859375 -0.234375 l0.15625 0.058594 q-0.09765625 -0.1171875 -0.1171875 -0.37109375 l-0.15625 0.097656 l-0.097656 -0.15625 q0 -0.078125 0.078125 -0.078125 l-0.19531 -0.29297 q0.078125 -0.01953125 0.078125 -0.09765625 l-0.019531 0 q-0.05859375 0 -0.078125 -0.05859375 q0.078125 -0.01953125 0.078125 -0.09765625 l-0.019531 0 q-0.05859375 0 -0.078125 -0.05859375 q0.078125 -0.01953125 0.078125 -0.09765625 l-0.15625 0.019531 l0.058594 -0.15625 l-0.078125 0 l0.058594 -0.15625 l-0.097656 -0.15625 q0.078125 0 0.078125 -0.078125 l-0.15625 0.019531 l-0.019531 -0.078125 l0.058594 -0.17578 l-0.078125 0.019531 l0.058594 -0.15625 l-0.097656 -0.15625 q0.078125 0 0.078125 -0.078125 q-0.078125 0 -0.09765625 -0.078125 q0.078125 0 0.078125 -0.078125 l-0.15625 0.019531 l0.058594 -0.17578 l-0.097656 -0.13672 q0.078125 -0.01953125 0.078125 -0.09765625 l-0.078125 0.019531 l0.058594 -0.17578 l-0.19531 -0.21484 l0 -0.097656 q0 -0.05859375 0.05859375 -0.05859375 l-0.078125 -0.15625 l0.058594 -0.15625 l-0.019531 0 q-0.05859375 0 -0.078125 -0.05859375 q0.078125 -0.01953125 0.078125 -0.09765625 l-0.15625 0.019531 l0.11719 -0.25391 l-0.078125 0.019531 l0 0.019531 q0 0.05859375 -0.05859375 0.05859375 l-0.019531 -0.078125 q0 -0.078125 0.078125 -0.078125 l-0.19531 -0.29297 q0.078125 -0.01953125 0.078125 -0.09765625 l-0.019531 0 q-0.05859375 0 -0.078125 -0.05859375 q0.13671875 -0.01953125 0.13671875 -0.13671875 l0 -0.039063 l-0.15625 0.019531 q0 -0.078125 0.078125 -0.09765625 l-0.23438 -0.66406 q0.13671875 -0.01953125 0.13671875 -0.17578125 l-0.019531 0 q-0.17578125 0 -0.2734375 -0.37109375 l0.058594 -0.15625 l-0.097656 -0.15625 l0.078125 0 q-0.17578125 -0.83984375 -0.25390625 -0.83984375 l0.058594 -0.15625 l-0.097656 -0.15625 l0.078125 0 q-0.078125 -0.15625 -0.15625 -0.703125 l-0.15625 0.019531 l0 -0.078125 l0.15625 -0.019531 q-0.17578125 -0.8203125 -0.25390625 -0.8203125 l0.058594 -0.17578 l-0.058594 -0.46875 l-0.097656 -0.13672 l0.078125 0 l-0.097656 -0.15625 l-0.11719 -1.0938 l-0.13672 -0.37109 q0.078125 0 0.078125 -0.078125 l-0.15625 0.019531 l0.058594 -0.17578 l-0.13672 -1.2305 q-0.01953125 -0.078125 -0.09765625 -0.078125 q0.05859375 -0.1171875 0.05859375 -0.234375 l-0.097656 -0.15625 l0.078125 0 q-0.078125 -0.1171875 -0.1171875 -0.234375 l0.058594 -0.15625 l-0.15625 -0.058594 l0.058594 -0.17578 l-0.17578 -1.543 q-0.01953125 -0.078125 -0.09765625 -0.078125 l0.058594 -0.15625 q0 -0.078125 -0.0390625 -0.09765625 l-0.039063 0 q0 -0.0390625 0.05859375 -0.05859375 q-0.1171875 -0.37109375 -0.2734375 -1.69921875 l-0.097656 -0.13672 l0.078125 -0.019531 q-0.078125 -0.0390625 -0.15625 -0.68359375 q-0.21484375 0.01953125 -0.21484375 0.7421875 q0 0.5859375 0.7421875 5.17578125 l0.078125 -0.019531 l-0.058594 0.17578 q0.3125 1.953125 0.4296875 2.8515625 l0.078125 0 l-0.058594 0.15625 q0.078125 0.13671875 0.09765625 0.234375 l-0.078125 0 l0.097656 0.15625 q0.05859375 0.56640625 0.703125 4.08203125 l0.019531 0 q0.05859375 0 0.078125 0.05859375 l-0.078125 0.019531 q0.13671875 0.52734375 0.17578125 0.546875 l0.039063 0 q0 0.05859375 -0.05859375 0.05859375 q0.8984375 4.39453125 1.66015625 6.796875 l0.078125 0 l-0.058594 0.15625 q0.80078125 2.83203125 1.2890625 3.7109375 l-0.078125 0 q0.9765625 2.51953125 1.9140625 3.4765625 l0.078125 0 l-0.019531 -0.078125 q-0.09765625 -0.13671875 -0.09765625 -0.234375 q0.7421875 0.4296875 1.03515625 0.4296875 l0.11719 0 z M71.6016125 29.902 l-0.078125 0 q-0.01953125 -0.21484375 -0.078125 -0.21484375 l-0.019531 0 q0.0390625 -0.1171875 0.0390625 -0.25390625 l0 -0.078125 l0.078125 0 z M71.7383125 30.4297 l-0.078125 0 l-0.058594 -0.52734 l0.078125 -0.019531 z M71.7969125 30.8203 q-0.01953125 -0.078125 -0.1171875 -0.234375 l0.15625 -0.097656 l0.039063 0.3125 z M71.9922125 31.2695 l-0.019531 0 q-0.1171875 0 -0.13671875 -0.13671875 l0.13672 -0.097656 z M95.25440625 39.70703 l-0.15625 0 q-2.578125 0 -5.41015625 -10.60546875 l0.078125 0 q-2.265625 -9.296875 -3.0078125 -15.546875 l-0.078125 0.019531 l0.058594 -0.17578 q-0.01953125 -0.15625 -0.17578125 -0.91796875 l-0.078125 0.019531 q-0.2734375 1.6796875 -0.546875 4.0625 q0.078125 0 0.078125 0.078125 q-0.21484375 0.01953125 -0.33203125 3.80859375 q0.15625 5.078125 0.15625 8.59375 q0 5.8203125 -0.41015625 7.40234375 q-0.4296875 1.34765625 -0.95703125 1.85546875 l-0.078125 0 l-0.019531 -0.15625 q-0.17578125 0.17578125 -0.21484375 0.17578125 l-0.097656 -0.13672 q0.703125 -1.54296875 0.703125 -6.0546875 l0 -0.72266 l-0.078125 0.019531 l0.039063 -0.95703 l-0.078125 0.019531 q0.0390625 -0.41015625 0.1171875 -0.41015625 l-0.097656 -0.13672 q0 -0.13671875 0.05859375 -0.25390625 l-0.019531 0 q-0.05859375 0 -0.078125 -0.05859375 q0.078125 -0.01953125 0.078125 -0.09765625 l-0.078125 0.019531 l0.058594 -0.17578 q-0.1171875 -1.42578125 -0.1171875 -2.109375 q0 -0.41015625 0.0390625 -0.546875 q-0.078125 0 -0.078125 -0.078125 l0.078125 0 q-0.01953125 -0.078125 -0.09765625 -0.078125 q0 -0.703125 0.078125 -0.703125 q-0.078125 -0.1171875 -0.1171875 -0.234375 l0.058594 -0.15625 l-0.058594 0 l0.058594 -0.15625 q-0.01953125 -0.17578125 -0.1171875 -0.3125 q0.05859375 0 0.05859375 -0.05859375 l0 -0.019531 l-0.15625 0.019531 l0 -0.078125 q0.21484375 -0.01953125 0.21484375 -0.15625 l0 -0.019531 l-0.078125 0 l0.058594 -0.15625 q-0.0390625 -0.15625 -0.09765625 -0.15625 q0 -0.703125 0.078125 -0.72265625 l-0.097656 -0.13672 q0.0390625 -0.1171875 0.0390625 -0.1953125 l0 -0.039063 l-0.078125 0 q0.0390625 -0.3125 0.13671875 -0.33203125 q-0.09765625 -0.13671875 -0.1171875 -0.21484375 q0.05859375 -0.15625 0.05859375 -0.25390625 l-0.078125 0.019531 l0.097656 -0.41016 l-0.019531 0 q-0.05859375 0 -0.05859375 -0.05859375 q0.05859375 -0.01953125 0.05859375 -0.078125 l0 -0.019531 l-0.078125 0.019531 q0.01953125 -0.56640625 0.09765625 -0.56640625 l-0.097656 -0.19531 q0 -0.15625 0.09765625 -0.5078125 l-0.078125 0 l0.078125 -0.72266 l-0.078125 0.019531 q0.09765625 -2.55859375 0.4296875 -4.375 l-0.078125 0 q0.3515625 -2.36328125 0.78125 -4.7265625 q-0.078125 0 -0.09765625 -0.078125 q0.13671875 0 0.3515625 -1.1328125 l-0.019531 -0.078125 l-0.078125 0.019531 q-0.01953125 0.546875 -0.234375 0.56640625 q0 0.078125 0.078125 0.078125 q-0.64453125 1.89453125 -1.15234375 6.89453125 q-0.3125 3.125 -0.3125 5.5859375 q0 1.73828125 0.15625 3.1640625 l0.019531 0 q0.05859375 0 0.05859375 0.05859375 q-0.13671875 0.01953125 -0.13671875 0.078125 l0.11719 1.7383 q-0.05859375 0.01953125 -0.05859375 0.078125 l0 0.019531 l0.078125 -0.019531 q0.078125 2.3828125 0.078125 4.2578125 q0 5.72265625 -0.76171875 6.6796875 l-0.078125 0.019531 q0.29296875 -1.58203125 0.29296875 -2.01171875 l0 -0.078125 q-0.078125 0 -0.078125 -0.078125 l0.15625 0 l-0.097656 -0.15625 q0.078125 -1.46484375 0.078125 -3.203125 q0 -1.50390625 -0.05859375 -3.2421875 l-0.078125 0 l0.078125 -0.15625 q-0.01953125 -0.234375 -0.1171875 -0.234375 l0 -0.46875 q0 -1.4453125 -0.15625 -5.56640625 l-0.078125 0.019531 q0 -6.03515625 0.4296875 -7.8515625 l-0.078125 0.019531 l0.68359 -4.2578 l-0.019531 0 q-0.05859375 0 -0.078125 -0.05859375 q0.078125 -0.01953125 0.33203125 -1.30859375 l-0.078125 0.019531 q0.09765625 -0.80078125 0.29296875 -0.8203125 q-0.078125 -0.1171875 -0.1171875 -0.234375 q0.1953125 -0.01953125 0.1953125 -0.25390625 l0 -0.078125 l-0.019531 0 q-0.05859375 0 -0.05859375 -0.05859375 l0.15625 -0.019531 l-0.097656 -0.15625 l0 -0.078125 l0.15625 0.058594 l0 -0.019531 q0 -0.17578125 0.2734375 -0.25390625 q0.078125 0 0.09765625 0.078125 q-0.21484375 0.01953125 -0.21484375 0.15625 l0 0.019531 l0.39063 -0.039063 l-0.039063 -0.3125 l0.23438 -0.019531 l0.11719 0.29297 l0.078125 0 q0.83984375 -1.50390625 1.42578125 -1.50390625 q0.76171875 0 1.11328125 3.1640625 q1.07421875 7.109375 1.8359375 11.50390625 q0.078125 0 0.078125 0.078125 l-0.078125 0 l0.097656 0.15625 q3.02734375 16.015625 6.07421875 16.015625 l0.13672 0 q0.25390625 -0.01953125 0.52734375 -0.83984375 l-0.078125 0 q-0.078125 0.33203125 -0.1953125 0.3515625 q-0.078125 0 -0.09765625 -0.078125 q0.87890625 -1.5234375 0.9375 -5.52734375 q0.05859375 -0.1953125 0.09765625 -1.19140625 l-0.078125 0 l0.13672 -3.3984 l-0.078125 0 q0.09765625 -0.5859375 0.1171875 -3.7890625 l-0.078125 0.019531 q0.1171875 -0.234375 0.15625 -3.9453125 l-0.058594 0 l0.058594 -0.72266 l-0.078125 0.019531 q0.05859375 -1.6796875 0.05859375 -3.28125 q0 -2.5 -0.13671875 -4.82421875 q0.078125 0 0.078125 -0.078125 l-0.078125 0.019531 l0.058594 -0.17578 l-0.097656 -0.78125 q-0.09765625 -0.83984375 -0.7421875 -2.34375 l-0.019531 -0.15625 l0.15625 -0.019531 q0.80078125 0.9765625 0.99609375 1.85546875 l-0.078125 0 l0.097656 0.15625 l0.078125 0.70313 q0.01953125 0.05859375 0.09765625 0.05859375 q-0.05859375 0.15625 -0.05859375 0.234375 l0.15625 0.625 l-0.078125 0 q0 0.078125 0.078125 0.078125 l0.078125 4.6289 l0.019531 0 q0.05859375 0 0.05859375 0.05859375 q-0.05859375 0.01953125 -0.05859375 0.078125 l0 0.019531 l0.019531 0 q0.05859375 0 0.05859375 0.05859375 q-0.13671875 0.01953125 -0.13671875 0.078125 l0 0.019531 q0.05859375 0.4296875 0.05859375 2.05078125 q0 2.12890625 -0.09765625 6.3671875 l0.078125 0 q-0.09765625 1.171875 -0.17578125 3.9453125 l0.078125 0 q-0.1171875 6.4453125 -0.78125 8.75 l0.078125 -0.019531 q0.390625 -0.8203125 0.56640625 -1.953125 l-0.019531 0 q-0.05859375 0 -0.078125 -0.05859375 q0.1953125 -0.0390625 0.1953125 -0.390625 l-0.019531 -0.19531 l-0.019531 0 q-0.05859375 0 -0.078125 -0.05859375 q0.234375 -0.0390625 0.234375 -1.19140625 l0 -0.17578 q0.078125 0 0.078125 -0.078125 l-0.078125 0 q0.09765625 -0.25390625 0.15625 -0.72265625 l-0.078125 0 q0.09765625 -0.5078125 0.1171875 -1.03515625 l-0.019531 0 q-0.05859375 0 -0.078125 -0.05859375 q0.078125 -0.01953125 0.078125 -0.09765625 l-0.078125 0.019531 q0.078125 -0.3515625 0.078125 -0.5078125 l0 -0.058594 l-0.078125 0.019531 q0.1171875 -0.3515625 0.1171875 -0.48828125 l-0.078125 0 l0.097656 -0.48828 l-0.019531 0 q-0.05859375 0 -0.078125 -0.05859375 q0.078125 -0.01953125 0.078125 -0.09765625 l-0.078125 0.019531 q0.01953125 -0.3125 0.1171875 -0.33203125 q-0.01953125 -0.05859375 -0.078125 -0.05859375 l-0.019531 0 q0.01953125 -0.48828125 0.1171875 -0.48828125 q-0.01953125 -0.078125 -0.09765625 -0.078125 q0.01953125 -0.703125 0.05859375 -0.859375 l-0.078125 0 q0.09765625 -0.3515625 0.09765625 -0.5078125 l0 -0.058594 l-0.078125 0.019531 q0.05859375 -0.17578125 0.1171875 -0.95703125 l-0.097656 -0.15625 l0.11719 -0.39063 l-0.078125 0 q0.078125 -0.41015625 0.078125 -0.5859375 l0 -0.058594 l-0.078125 0.019531 q0.09765625 -0.3515625 0.09765625 -0.5078125 l0 -0.058594 l-0.15625 0.019531 l-0.019531 -0.078125 q0.1953125 -0.01953125 0.1953125 -0.3125 l0 -0.097656 q-0.078125 0 -0.078125 -0.078125 q0.05859375 0 0.05859375 -0.078125 q-0.078125 0 -0.078125 -0.078125 l0.078125 0 l-0.097656 -0.15625 q0.09765625 -0.21484375 0.09765625 -0.46875 l-0.019531 -0.15625 q-0.078125 0 -0.09765625 -0.078125 q0.15625 -0.01953125 0.15625 -0.80078125 l-0.078125 0 q0.01953125 -0.390625 0.09765625 -0.390625 l-0.097656 -0.15625 q0.0390625 -0.3125 0.13671875 -0.33203125 q-0.09765625 -0.13671875 -0.1171875 -0.21484375 l0.058594 -0.15625 l-0.097656 -0.15625 q0.09765625 -0.25390625 0.15625 -0.80078125 q-0.01953125 -0.078125 -0.09765625 -0.078125 l0 -0.3125 q0 -0.390625 0.078125 -0.390625 q-0.0390625 -0.078125 -0.068359375 -0.15625 t-0.029297 -0.13672 q0 -0.25390625 0.1171875 -0.2734375 q-0.01953125 -0.05859375 -0.078125 -0.05859375 l-0.019531 0 q0.01953125 -0.546875 0.078125 -0.72265625 l-0.019531 0 q-0.05859375 0 -0.078125 -0.05859375 q0.078125 -0.01953125 0.078125 -0.09765625 l-0.078125 0.019531 q0.05859375 -0.15625 0.05859375 -0.80078125 l-0.078125 0.019531 q0.0390625 -0.33203125 0.1171875 -0.33203125 l-0.097656 -0.15625 q0.05859375 -0.1171875 0.05859375 -0.234375 q0 -0.078125 -0.078125 -0.078125 q0.01953125 -0.3125 0.1171875 -0.3125 l-0.097656 -0.15625 l0.019531 -0.46875 l-0.097656 -0.15625 q0.13671875 -0.01953125 0.13671875 -0.13671875 l0 -0.039063 l-0.078125 0.019531 q0.05859375 -0.15625 0.05859375 -0.80078125 l-0.078125 0.019531 q0.078125 -0.15625 0.078125 -0.80078125 l-0.078125 0 q0.01953125 -0.3125 0.1171875 -0.3125 l-0.097656 -0.15625 l0.058594 -0.15625 q-0.078125 0 -0.078125 -0.078125 q0.05859375 0 0.05859375 -0.05859375 l0 -0.019531 l-0.078125 0 q0.0390625 -0.17578125 0.0390625 -1.015625 l-0.078125 0 l0.058594 -0.15625 l-0.097656 -0.78125 l0.13672 -0.25391 l-0.039063 0 q-0.13671875 0 -0.13671875 -0.21484375 l0.11719 -0.25391 l-0.078125 0.019531 l0 0.019531 q0 0.05859375 -0.05859375 0.05859375 l-0.039063 -0.3125 l0.15625 -0.019531 l-0.019531 -0.078125 l-0.15625 0.019531 l0.13672 -0.23438 l-0.078125 0 q0 0.078125 -0.078125 0.078125 q0 -0.234375 0.13671875 -0.234375 l-0.21484 -0.44922 l0.15625 -0.019531 l0.039063 0.3125 l0.078125 -0.019531 l-0.058594 -0.46875 l-0.019531 0 q-0.05859375 0 -0.05859375 -0.05859375 l0.078125 -0.019531 q-0.60546875 -1.09375 -0.625 -1.25 q0.25390625 -0.15625 0.25390625 -0.4296875 l0 -0.078125 l0.54688 -0.058594 q0.72265625 0.2734375 1.11328125 2.7734375 q0.1953125 1.640625 0.1953125 6.328125 q0 5.9765625 -0.3125 16.89453125 l0.019531 0 q0.05859375 0 0.078125 0.05859375 q-0.1953125 0.0390625 -0.1953125 0.83984375 l0 0.29297 q-0.37109375 3.02734375 -1.66015625 4.58984375 q-0.95703125 0.859375 -1.7578125 1.15234375 q-0.41015625 0.44921875 -1.26953125 0.546875 z M95.05840625 38.6328 q-0.44921875 -0.48828125 -0.5859375 -0.48828125 l-0.019531 0 l0.058594 -0.15625 q-0.703125 -0.64453125 -1.69921875 -3.02734375 q-0.078125 0 -0.09765625 -0.078125 l0.078125 0 l-0.89844 -2.4219 l0.078125 0 q-0.33203125 -0.8203125 -1.015625 -3.18359375 l-0.078125 0 l0.058594 -0.15625 l-0.019531 -0.3125 l-0.078125 0 l0.039063 0.39063 l-0.15625 -0.058594 l0.058594 -0.15625 q-0.01953125 -0.078125 -0.09765625 -0.078125 q0.05859375 -0.15625 0.05859375 -0.234375 l0.15625 0.058594 q-0.09765625 -0.1171875 -0.1171875 -0.37109375 l-0.15625 0.097656 l-0.097656 -0.15625 q0 -0.078125 0.078125 -0.078125 l-0.19531 -0.29297 q0.078125 -0.01953125 0.078125 -0.09765625 l-0.019531 0 q-0.05859375 0 -0.078125 -0.05859375 q0.078125 -0.01953125 0.078125 -0.09765625 l-0.019531 0 q-0.05859375 0 -0.078125 -0.05859375 q0.078125 -0.01953125 0.078125 -0.09765625 l-0.15625 0.019531 l0.058594 -0.15625 l-0.078125 0 l0.058594 -0.15625 l-0.097656 -0.15625 q0.078125 0 0.078125 -0.078125 l-0.15625 0.019531 l-0.019531 -0.078125 l0.058594 -0.17578 l-0.078125 0.019531 l0.058594 -0.15625 l-0.097656 -0.15625 q0.078125 0 0.078125 -0.078125 q-0.078125 0 -0.09765625 -0.078125 q0.078125 0 0.078125 -0.078125 l-0.15625 0.019531 l0.058594 -0.17578 l-0.097656 -0.13672 q0.078125 -0.01953125 0.078125 -0.09765625 l-0.078125 0.019531 l0.058594 -0.17578 l-0.19531 -0.21484 l0 -0.097656 q0 -0.05859375 0.05859375 -0.05859375 l-0.078125 -0.15625 l0.058594 -0.15625 l-0.019531 0 q-0.05859375 0 -0.078125 -0.05859375 q0.078125 -0.01953125 0.078125 -0.09765625 l-0.15625 0.019531 l0.11719 -0.25391 l-0.078125 0.019531 l0 0.019531 q0 0.05859375 -0.05859375 0.05859375 l-0.019531 -0.078125 q0 -0.078125 0.078125 -0.078125 l-0.19531 -0.29297 q0.078125 -0.01953125 0.078125 -0.09765625 l-0.019531 0 q-0.05859375 0 -0.078125 -0.05859375 q0.13671875 -0.01953125 0.13671875 -0.13671875 l0 -0.039063 l-0.15625 0.019531 q0 -0.078125 0.078125 -0.09765625 l-0.23438 -0.66406 q0.13671875 -0.01953125 0.13671875 -0.17578125 l-0.019531 0 q-0.17578125 0 -0.2734375 -0.37109375 l0.058594 -0.15625 l-0.097656 -0.15625 l0.078125 0 q-0.17578125 -0.83984375 -0.25390625 -0.83984375 l0.058594 -0.15625 l-0.097656 -0.15625 l0.078125 0 q-0.078125 -0.15625 -0.15625 -0.703125 l-0.15625 0.019531 l0 -0.078125 l0.15625 -0.019531 q-0.17578125 -0.8203125 -0.25390625 -0.8203125 l0.058594 -0.17578 l-0.058594 -0.46875 l-0.097656 -0.13672 l0.078125 0 l-0.097656 -0.15625 l-0.11719 -1.0938 l-0.13672 -0.37109 q0.078125 0 0.078125 -0.078125 l-0.15625 0.019531 l0.058594 -0.17578 l-0.13672 -1.2305 q-0.01953125 -0.078125 -0.09765625 -0.078125 q0.05859375 -0.1171875 0.05859375 -0.234375 l-0.097656 -0.15625 l0.078125 0 q-0.078125 -0.1171875 -0.1171875 -0.234375 l0.058594 -0.15625 l-0.15625 -0.058594 l0.058594 -0.17578 l-0.17578 -1.543 q-0.01953125 -0.078125 -0.09765625 -0.078125 l0.058594 -0.15625 q0 -0.078125 -0.0390625 -0.09765625 l-0.039063 0 q0 -0.0390625 0.05859375 -0.05859375 q-0.1171875 -0.37109375 -0.2734375 -1.69921875 l-0.097656 -0.13672 l0.078125 -0.019531 q-0.078125 -0.0390625 -0.15625 -0.68359375 q-0.21484375 0.01953125 -0.21484375 0.7421875 q0 0.5859375 0.7421875 5.17578125 l0.078125 -0.019531 l-0.058594 0.17578 q0.3125 1.953125 0.4296875 2.8515625 l0.078125 0 l-0.058594 0.15625 q0.078125 0.13671875 0.09765625 0.234375 l-0.078125 0 l0.097656 0.15625 q0.05859375 0.56640625 0.703125 4.08203125 l0.019531 0 q0.05859375 0 0.078125 0.05859375 l-0.078125 0.019531 q0.13671875 0.52734375 0.17578125 0.546875 l0.039063 0 q0 0.05859375 -0.05859375 0.05859375 q0.8984375 4.39453125 1.66015625 6.796875 l0.078125 0 l-0.058594 0.15625 q0.80078125 2.83203125 1.2890625 3.7109375 l-0.078125 0 q0.9765625 2.51953125 1.9140625 3.4765625 l0.078125 0 l-0.019531 -0.078125 q-0.09765625 -0.13671875 -0.09765625 -0.234375 q0.7421875 0.4296875 1.03515625 0.4296875 l0.11719 0 z M91.03520625 29.902 l-0.078125 0 q-0.01953125 -0.21484375 -0.078125 -0.21484375 l-0.019531 0 q0.0390625 -0.1171875 0.0390625 -0.25390625 l0 -0.078125 l0.078125 0 z M91.17190625 30.4297 l-0.078125 0 l-0.058594 -0.52734 l0.078125 -0.019531 z M91.23050625 30.8203 q-0.01953125 -0.078125 -0.1171875 -0.234375 l0.15625 -0.097656 l0.039063 0.3125 z M91.42580625 31.2695 l-0.019531 0 q-0.1171875 0 -0.13671875 -0.13671875 l0.13672 -0.097656 z M104.7852 9.765999999999998 l0.078125 0 q0.91796875 0.15625 3.59375 0.390625 l0 -0.078125 l0.15625 0.078125 l0.85938 0 q1.2109375 0 3.90625 -0.078125 l0 -0.078125 q0.9375 0.078125 0.9375 0.3125 q0 0.546875 -0.9375 0.546875 q-0.3515625 0.3125 -2.109375 0.625 q-1.6015625 0.15625 -2.421875 0.15625 q-2.0703125 0 -3.203125 -0.3125 l0 0.15625 q0.21484375 1.25 0.3125 1.25 q0 0.078125 -0.078125 0.078125 q0.234375 1.25 0.234375 4.140625 l0 2.2656 q0 3.18359375 -0.234375 10.703125 l0.078125 0 l5.8594 0.54688 q1.26953125 -0.15625 1.484375 -0.3125 q0.15625 0.078125 0.234375 0.078125 q0 -0.078125 0.078125 -0.078125 q0 0.078125 0.078125 0.078125 q0 0.33203125 -0.625 0.703125 l0 -0.078125 l-1.3281 0.54688 l-0.15625 -0.078125 q0 0.3125 -2.5 0.390625 l-1.0938 0 q-0.078125 0 -0.078125 0.078125 q-0.13671875 -0.15625 -2.03125 -0.3125 l-0.078125 0.15625 l0 1.5625 l-0.078125 0.15625 l0.078125 0 q-0.078125 0.15625 -0.078125 0.234375 q0 1.8359375 -0.234375 4.53125 q0.078125 0 0.078125 0.078125 q2.1875 0.078125 2.8125 0.078125 q1.875 0 6.484375 -0.546875 q0.01953125 0.15625 0.15625 0.15625 q-0.41015625 1.46484375 -6.5625 2.03125 q-0.41015625 0 -0.703125 0.078125 l0 -0.078125 q-0.15625 0.078125 -0.234375 0.078125 q-2.20703125 0 -3.671875 -0.546875 l0 0.078125 q0.078125 0.15625 0.078125 0.234375 l-0.15625 0.078125 q-0.546875 -0.703125 -0.859375 -2.5 l0.078125 -0.15625 l0 -0.23438 l-0.078125 -0.15625 l0.078125 0 l-0.078125 -0.15625 l0 -2.8906 l0.078125 -0.15625 l-0.078125 0 l0.078125 -0.15625 l0 -1.875 l0.078125 -0.15625 l-0.078125 0 q0.078125 -0.15625 0.078125 -0.234375 q0 -0.8984375 1.09375 -16.71875 l-0.078125 0 l0.078125 -0.15625 q0 -1.4453125 -0.546875 -3.75 l0.46875 0 l0.39063 -0.078125 l0 -0.078125 l-0.15625 0 l0 -0.078125 q0.1171875 0 0.546875 -0.46875 q-0.078125 0 -0.078125 -0.078125 z M103.8477 11.015999999999998 q0.390625 0.76171875 0.703125 3.125 q-0.078125 0 -0.078125 0.078125 l0.078125 0 q0 0.078125 -0.078125 0.078125 l0.078125 0.78125 l0 0.46875 l-0.078125 0.54688 l0.078125 0 l-0.078125 0.15625 l0 0.078125 l0.078125 0.15625 q-0.078125 0 -0.078125 0.078125 q0.078125 0 0.078125 0.078125 q-0.078125 0 -0.078125 0.078125 l0.078125 0 l-0.078125 0.15625 l0 1.0156 q0 0.078125 -0.078125 0.078125 l0.078125 0.15625 l-0.078125 0.54688 q0.078125 0 0.078125 0.078125 q-0.078125 0 -0.078125 0.078125 l0.078125 0 l-0.078125 0.15625 l0 0.23438 q0 0.078125 0.078125 0.078125 q-0.078125 0.15625 -0.078125 0.234375 q0 0.78125 -0.234375 5.78125 q-0.078125 0 -0.078125 0.078125 l0.078125 0 l-0.078125 0.15625 q0 0.78125 -0.234375 4.765625 l0.23438 0 l0 -0.70313 q0 -0.078125 0.078125 -0.078125 l-0.078125 -0.15625 l0.078125 -0.39063 l-0.078125 0 q0.078125 -0.703125 0.15625 -0.703125 l-0.078125 -0.15625 l0.078125 -0.39063 q-0.078125 0 -0.078125 -0.078125 q0.078125 0 0.078125 -0.078125 l-0.078125 0 q0.078125 -0.546875 0.15625 -0.546875 l-0.078125 -0.15625 q0.078125 -0.13671875 0.078125 -0.3125 l-0.078125 0 l0.078125 -0.15625 l0 -0.70313 q0 -0.078125 0.078125 -0.078125 l-0.078125 -0.15625 l0.078125 -0.15625 q-0.078125 0 -0.078125 -0.078125 q0.078125 0 0.078125 -0.078125 l-0.078125 0 q0.078125 -0.625 0.15625 -0.625 l-0.078125 -0.15625 l0.078125 -0.39063 l-0.078125 0 l0.078125 -0.15625 l0 -0.54688 q0 -0.17578125 0.078125 -0.3125 q0 -0.078125 -0.078125 -0.078125 q0.09765625 -0.72265625 0.15625 -0.9375 l-0.078125 0 l0.078125 -0.15625 q0 -0.078125 -0.078125 -0.078125 l0.15625 -0.39063 l-0.078125 0 l0.078125 -0.15625 q0.078125 -1.85546875 0.078125 -2.578125 q0.15625 0 0.15625 -0.15625 l-0.078125 0 l0.078125 -0.15625 l0 -0.078125 q0 -0.078125 -0.078125 -0.078125 l0.078125 -0.15625 l0 -0.46875 q0 -0.078125 -0.078125 -0.078125 l0.15625 -0.39063 l-0.078125 0 l0.078125 -0.15625 l0 -1.875 l0.078125 0 l0 0.625 l0.078125 0 l0 -1.875 q0 -2.65625 -0.859375 -2.65625 q-0.234375 0 -0.234375 -0.15625 q-0.15625 0.078125 -0.234375 0.078125 z M105.0977 15.703 l0 0.54688 l0.078125 0 l0 -0.54688 l-0.078125 0 z M103.8477 31.1719 q0 0.25390625 -0.078125 0.390625 l0.078125 0 l-0.078125 0.15625 l0 1.875 l-0.078125 0.15625 l0.078125 0 l-0.078125 0.15625 l0 0.23438 q0 0.078125 0.078125 0.078125 l-0.078125 0.15625 l0 2.1875 q0 0.078125 -0.078125 0.078125 l0.078125 0.15625 l0 0.23438 l-0.078125 0.39063 l0.078125 0 l-0.078125 0.15625 l0 0.23438 q0 0.33203125 0.15625 0.625 q-0.078125 0 -0.078125 0.078125 l0.23438 0 l0 -0.15625 q0 -0.078125 -0.078125 -0.078125 l0.078125 -0.15625 l0 -0.54688 l-0.078125 -0.15625 l0.078125 0 l-0.078125 -0.15625 l0 -0.078125 l0.078125 -0.15625 l-0.078125 0 q0 -0.078125 0.078125 -0.078125 l-0.078125 -0.78125 l0 -0.3125 q0 -0.078125 0.078125 -0.078125 l-0.078125 -0.15625 l0 -0.078125 l0.078125 -0.15625 q-0.078125 0 -0.078125 -0.078125 q0.078125 0 0.078125 -0.078125 l-0.078125 0 l0.078125 -0.15625 q0 -0.078125 -0.078125 -0.078125 l0.078125 -0.15625 l0 -0.15625 q0 -0.078125 -0.078125 -0.078125 l0.078125 -0.15625 l0 -1.6406 l0.078125 -0.15625 l-0.078125 0 l0.078125 -0.15625 l0 -1.0938 l0.078125 -0.15625 l-0.15625 -0.078125 l-0.078125 0 z M125.175825 7.421999999999997 q2.34375 0.390625 2.34375 3.046875 l0 0.15625 q0 1.23046875 -0.546875 1.328125 l-0.078125 0 q-0.05859375 -0.546875 -0.15625 -0.546875 l0.15625 -0.39063 q0 -1.5625 -1.015625 -2.1875 q-0.3125 -0.0390625 -0.3125 -0.234375 l-0.15625 0.078125 q-0.13671875 -0.078125 -0.3125 -0.078125 l0 0.15625 q0.17578125 0 0.390625 0.390625 l-0.078125 0 q0.78125 1.11328125 0.78125 2.265625 l0 0.78125 q0 0.15625 -0.15625 0.15625 l-0.15625 -0.54688 q0 -0.078125 0.078125 -0.078125 q0 -2.01171875 -1.484375 -2.65625 q-0.3125 -0.078125 -0.546875 -0.078125 q-0.95703125 0 -1.328125 0.78125 q-0.3125 0.46875 -0.3125 0.625 q0.078125 0 0.078125 0.078125 q-0.2734375 0 -0.703125 1.171875 q0.078125 0 0.078125 0.078125 q-0.2734375 0 -0.78125 2.109375 q0.078125 0 0.078125 0.078125 q-0.25390625 0.01953125 -0.546875 1.953125 q-1.171875 6.23046875 -1.171875 11.484375 q-0.078125 0 -0.078125 1.171875 l-0.078125 0 q0 0.078125 0.078125 0.078125 q0 0.0390625 -0.078125 0.3125 q0 1.0546875 -0.078125 3.671875 q0 5.625 2.265625 5.625 l0.078125 0 q1.81640625 0 3.671875 -2.109375 l1.0156 -0.85938 q0.15625 0.078125 0.234375 0.078125 q-0.46875 1.62109375 -2.65625 3.203125 q-2.5390625 1.484375 -4.0625 1.484375 l-0.3125 0 q-2.0703125 0 -2.96875 -2.8125 q-0.390625 -1.69921875 -0.390625 -4.140625 q0 -0.078125 -0.078125 -0.078125 l0.078125 -0.15625 q0 -4.39453125 1.484375 -15.078125 q0.703125 -3.18359375 1.171875 -4.21875 l0.078125 0 l-0.078125 -0.15625 l0.15625 -0.078125 l-0.078125 -0.15625 l0 -0.078125 l0.15625 0.078125 q0 -0.17578125 0.078125 -0.3125 q-0.078125 0 -0.078125 -0.078125 q0.13671875 -0.09765625 1.25 -2.34375 l0.15625 -0.078125 l0.078125 0.15625 l-0.39063 0.625 l0 0.078125 l0.078125 0 q0.37109375 -1.15234375 3.125 -3.203125 q1.0546875 -0.546875 2.03125 -0.546875 z M119.941425 12.187000000000001 q0 0.21484375 -0.15625 0.46875 l0.15625 0 l0.078125 -0.39063 l0 -0.078125 l-0.078125 0 z M119.707025 12.734000000000002 l0.078125 0.15625 q-0.1171875 0 -0.234375 0.3125 q0.078125 0 0.078125 0.078125 l-0.15625 0 l0.078125 0.15625 q-0.15625 0.01953125 -0.15625 0.15625 q0.078125 0 0.078125 0.078125 l-0.15625 0 q0 0.078125 0.078125 0.078125 q-0.25390625 0.41015625 -0.46875 1.328125 q0.078125 0 0.078125 0.078125 q-0.3515625 0 -0.9375 3.90625 q-0.078125 0 -0.15625 0.546875 l0.078125 0 l-0.23438 1.0938 l0.078125 0 l-0.15625 0.70313 l0.078125 0 q-0.15625 0.7421875 -0.390625 3.4375 l0.078125 0 q-0.078125 0.13671875 -0.15625 0.9375 l0.078125 0 q-0.15625 0.234375 -0.3125 3.359375 q0.078125 0 0.078125 0.078125 q-0.15625 0.01953125 -0.15625 0.15625 l0.23438 0 l0.078125 -0.46875 q-0.078125 0 -0.078125 -0.078125 q0.078125 0 0.078125 -0.078125 l-0.078125 0 l0.078125 -0.15625 l0.23438 -3.5938 q-0.078125 0 -0.078125 -0.078125 q0.15625 0 0.15625 -0.15625 l0 -0.3125 q0 -0.078125 -0.078125 -0.078125 q0.13671875 -0.5078125 0.46875 -3.125 l-0.078125 0 l0.23438 -1.0938 l-0.078125 0 q0.703125 -4.3359375 1.71875 -7.265625 q0.078125 0 0.078125 -0.15625 l-0.15625 0 z M116.972625 29.609 l0.078125 0.15625 q-0.078125 0 -0.078125 0.078125 q0.078125 0 0.078125 0.078125 q-0.078125 0 -0.078125 0.078125 l0.078125 0 l-0.078125 0.15625 l0 0.15625 q0 0.078125 0.078125 0.078125 q-0.15625 0.44921875 -0.15625 1.71875 l0.078125 0 q-0.078125 0.15625 -0.078125 0.234375 l0 0.85938 l0.078125 0 q0.078125 -2.44140625 0.234375 -3.75 l-0.078125 0 q-0.15625 0.01953125 -0.15625 0.15625 z M116.894525 33.4375 l0 0.85938 l0.078125 0 l0 -0.85938 l-0.078125 0 z M116.894525 35.7812 l0 0.078125 q0.13671875 1.11328125 0.390625 1.71875 l0.078125 0 q0 -0.13671875 -0.15625 -0.625 l0.078125 0 q-0.234375 -0.52734375 -0.3125 -1.171875 l-0.078125 0 z M118.144525 37.8906 l0 0.078125 q0.13671875 0.3125 0.3125 0.3125 l0 0.078125 l-0.078125 0.15625 l0.15625 -0.078125 l0.078125 0 l-0.078125 0.15625 l0 0.078125 l0.39063 0.078125 q-0.546875 -0.76171875 -0.78125 -0.859375 z M131.3867 40 q-0.390625 -0.80078125 -0.46875 -1.9921875 q-0.078125 -0.72265625 -0.078125 -2.16796875 q0 -3.92578125 0.4296875 -14.04296875 l0.097656 -2.6563 q-0.078125 0 -0.09765625 -0.078125 q0.1953125 0 0.1953125 -2.6171875 l0 -0.50781 l0.27344 -3.2813 q-0.21484375 -0.15625 -0.25390625 -0.15625 q-0.234375 0 -0.234375 0.078125 q-0.78125 -0.15625 -3.53515625 -0.3125 l-0.019531 -0.078125 l0.3125 0 l0 -0.078125 l-0.3125 0 l0 -0.078125 l0.68359 -0.15625 l-0.17578 -0.23438 q0.3515625 -0.15625 0.37109375 -0.3125 q-0.078125 0 -0.09765625 -0.078125 q1.171875 -0.078125 1.71875 -0.078125 q0.703125 0 2.734375 0.078125 l0.15625 -0.078125 q0.01953125 0.21484375 4.47265625 0.3125 q2.32421875 0 3.73046875 -0.3125 q0.390625 0.078125 0.41015625 0.15625 q-0.60546875 1.30859375 -5.17578125 1.5625 q-0.4296875 -0.078125 -2.91015625 -0.15625 q0 -0.078125 -0.078125 -0.078125 q-0.13671875 0.17578125 -0.13671875 0.29296875 l0 0.019531 q0.05859375 0.6640625 0.078125 7.109375 q0.078125 0 0.078125 0.078125 q-0.13671875 0 -0.13671875 0.17578125 l0 3.5547 q0 12.3828125 -0.25390625 14.08203125 q-0.2734375 1.3671875 -0.87890625 1.640625 q-0.078125 -0.390625 -0.25390625 -0.390625 l0.019531 0.23438 l-0.078125 0 q-0.0390625 -0.33203125 -0.15625 -0.859375 l0.078125 0 q-0.0390625 -0.078125 -0.068359375 -0.146484375 t-0.029297 -0.10742 q0 -0.05859375 0.05859375 -0.05859375 l-0.078125 -0.15625 l-0.058594 -0.54688 q0 -0.078125 0.078125 -0.078125 l-0.097656 -0.15625 l0.058594 -0.15625 l-0.078125 0 q0.05859375 0 0.05859375 -0.625 l-0.019531 -0.78125 q-0.078125 0 -0.078125 -0.078125 q0.13671875 0 0.13671875 -0.05859375 l0 -1.0352 q0 -1.5625 0.09765625 -1.5625 q0 -0.078125 -0.0390625 -0.087890625 t-0.039063 -0.029297 q0 -0.17578125 0.09765625 -0.5859375 l-0.078125 0 q0.0390625 -0.15625 0.078125 -0.859375 l-0.078125 0 l0.097656 -0.625 l-0.078125 0 q0.0390625 -0.390625 0.1171875 -0.390625 q0 -0.078125 -0.078125 -0.078125 l0.097656 -0.70313 l-0.078125 0 q0.05859375 -1.09375 0.13671875 -1.09375 q0 -0.078125 -0.0390625 -0.087890625 t-0.039063 -0.029297 q0 -0.17578125 0.09765625 -0.5859375 q-0.078125 0 -0.09765625 -0.078125 q0.078125 0 0.078125 -0.078125 l-0.078125 0 l0.11719 -0.39063 q-0.078125 0 -0.078125 -0.078125 q0.078125 0 0.078125 -0.078125 q-0.078125 0 -0.09765625 -0.078125 l0.15625 -0.078125 l-0.097656 -0.15625 q0 -0.1171875 0.05859375 -0.234375 q-0.078125 0 -0.078125 -0.078125 q0.05859375 0 0.05859375 -0.05859375 l-0.039063 0 q-0.0390625 -0.01953125 -0.0390625 -0.09765625 l0.15625 -0.078125 q-0.0390625 -0.078125 -0.068359375 -0.146484375 t-0.029297 -0.10742 q0 -0.05859375 0.05859375 -0.05859375 l-0.078125 -0.15625 q0.01953125 -0.3125 0.1171875 -0.3125 q-0.078125 -0.15625 -0.078125 -0.1953125 q0 -0.17578125 0.09765625 -0.5859375 q-0.09765625 -0.15625 -0.09765625 -0.234375 q0.05859375 -0.15625 0.05859375 -0.234375 q-0.078125 0 -0.09765625 -0.078125 q0.078125 0 0.078125 -0.078125 q-0.078125 0 -0.078125 -0.078125 l0.15625 0 l-0.039063 -0.3125 l0.039063 -0.39063 l-0.078125 0 l0.13672 -1.25 l-0.078125 0 l0.058594 -0.15625 q-0.01953125 -0.234375 -0.09765625 -0.234375 q0.1171875 -0.5078125 0.234375 -3.59375 l-0.078125 0 l0.17578 -2.5 l-0.078125 0 l0.078125 -0.78125 l-0.078125 0 q0.09765625 -0.1953125 0.09765625 -1.03515625 l0 -0.52734 l0.078125 0 l0.019531 0.15625 l0.078125 0 l-0.039063 -0.46875 l-0.097656 -0.15625 l0.15625 0 l0 -0.078125 l-0.54688 -0.078125 q-0.078125 0.1171875 -0.078125 1.015625 l0.078125 0 q-0.05859375 0.1171875 -0.05859375 0.234375 l0.097656 0.15625 l-0.15625 0 q0.01953125 0.3125 0.09765625 0.3125 q-0.17578125 0.56640625 -0.3515625 11.953125 l-0.27344 9.375 l0.078125 0 l-0.11719 3.125 l0.078125 0 l-0.078125 0.15625 l0.078125 0.89844 q0 0.1171875 -0.13671875 0.1171875 z"></path></g><g id="SvgjsG3799" featurekey="sloganFeature-0" transform="matrix(0.7355794069089184,0,0,0.7355794069089184,114.23499744487485,77.73364000113082)" fill="#eeeeee"><path d="M1.04 18.52 c0.94 0.88 2.7 1.68 4.46 1.68 c2.7 0 4.52 -1.46 4.52 -3.64 c0 -1.76 -0.78 -2.76 -4.06 -4.58 c-2.46 -1.36 -3.08 -1.86 -3.08 -2.88 c0 -1.1 1.08 -1.98 2.68 -1.98 c0.96 0 2.14 0.42 2.84 0.86 l0.72 -1.12 c-0.94 -0.6 -2.32 -1.06 -3.54 -1.06 c-2.48 0 -4.18 1.42 -4.18 3.32 c0 1.68 0.86 2.52 3.56 3.96 c2.62 1.38 3.56 2.3 3.56 3.48 c0 1.34 -1.26 2.26 -3 2.26 c-1.42 0 -2.88 -0.7 -3.68 -1.42 z M22.759 6 l1.4 0 l0 14 l-1.4 0 l0 -6.64 l-7.66 0 l0 6.64 l-1.4 0 l0 -14 l1.4 0 l0 6.04 l7.66 0 l0 -6.04 z M33.938 5.800000000000001 c3 0 5.44 1.8 5.44 5.02 l0 9.18 l-1.36 0 l0 -1.84 c-0.94 1.2 -2.44 2.04 -4.32 2.04 c-3.66 0 -5.56 -2.46 -5.56 -5.1 s1.9 -5.1 5.56 -5.1 c1.96 0 3.4 0.82 4.32 2.02 l0 -1.2 c0 -2.34 -1.94 -3.66 -4.08 -3.66 c-1.56 0 -3.18 0.62 -3.94 1.1 l-0.66 -1.16 c0.92 -0.58 2.54 -1.3 4.6 -1.3 z M33.698 18.92 c2.56 0 4.32 -2 4.32 -3.5 l0 -0.74 c-0.34 -1.78 -2.06 -3.4 -4.32 -3.4 c-2.64 0 -4.18 1.8 -4.18 3.82 s1.54 3.82 4.18 3.82 z M48.677 5.800000000000001 c1.1 0 2.1 0.34 3.08 1.06 l-0.7 1.06 c-0.74 -0.54 -1.56 -0.82 -2.4 -0.82 c-2.22 0 -3.6 2.04 -3.6 5.3 l0 7.6 l-1.38 0 l0 -14 l1.38 0 l0 2.06 c0.76 -1.42 2 -2.26 3.62 -2.26 z M67.236 13 l0 0.54 l-11.46 0 c0.18 2.96 1.88 5.36 5.42 5.36 c1.84 0 3.56 -0.9 4.48 -2 l0.88 0.88 c-1.08 1.28 -2.96 2.42 -5.36 2.42 c-4.52 0 -6.84 -3.2 -6.84 -7.2 c0 -4.02 2.86 -7.2 6.66 -7.2 c4 0 6.22 3.18 6.22 7.2 z M61.016 7.1 c-2.8 0 -4.9 2.3 -5.22 5.16 l10.1 0 c-0.24 -2.92 -1.88 -5.16 -4.88 -5.16 z M71.37500000000001 18.12 l1.24 0 l-1.16 3.74 l-1.02 0 z M83.63300000000001 13 c0 -4.04 3.18 -7.2 7.18 -7.2 c1.68 0 3.32 0.58 4.7 1.66 l-0.7 1.08 c-1.18 -0.94 -2.54 -1.44 -4 -1.44 c-3.24 0 -5.8 2.62 -5.8 5.9 s2.58 5.9 5.8 5.9 c1.54 0 2.94 -0.54 4 -1.52 l0.72 1.08 c-1.26 1.1 -2.96 1.74 -4.72 1.74 c-4 0 -7.18 -3.18 -7.18 -7.2 z M105.75200000000001 20.2 c-4 0 -7.14 -3.2 -7.14 -7.2 s3.14 -7.2 7.14 -7.2 s7.16 3.2 7.16 7.2 s-3.16 7.2 -7.16 7.2 z M105.75200000000001 18.88 c3.24 0 5.72 -2.58 5.72 -5.88 s-2.48 -5.88 -5.72 -5.88 s-5.72 2.58 -5.72 5.88 s2.48 5.88 5.72 5.88 z M122.05100000000002 5.800000000000001 c3.08 0 5.14 1.8 5.14 5.24 l0 8.96 l-1.38 0 l0 -8.68 c0 -2.9 -1.62 -4.22 -3.76 -4.22 c-1.9 0 -3.88 1.6 -3.88 3.94 l0 8.96 l-1.38 0 l0 -14 l1.38 0 l0 1.72 c0.82 -1.12 2.14 -1.92 3.88 -1.92 z M136.75000000000003 5.800000000000001 c3.08 0 5.14 1.8 5.14 5.24 l0 8.96 l-1.38 0 l0 -8.68 c0 -2.9 -1.62 -4.22 -3.76 -4.22 c-1.9 0 -3.88 1.6 -3.88 3.94 l0 8.96 l-1.38 0 l0 -14 l1.38 0 l0 1.72 c0.82 -1.12 2.14 -1.92 3.88 -1.92 z M158.50900000000004 13 l0 0.54 l-11.46 0 c0.18 2.96 1.88 5.36 5.42 5.36 c1.84 0 3.56 -0.9 4.48 -2 l0.88 0.88 c-1.08 1.28 -2.96 2.42 -5.36 2.42 c-4.52 0 -6.84 -3.2 -6.84 -7.2 c0 -4.02 2.86 -7.2 6.66 -7.2 c4 0 6.22 3.18 6.22 7.2 z M152.28900000000004 7.1 c-2.8 0 -4.9 2.3 -5.22 5.16 l10.1 0 c-0.24 -2.92 -1.88 -5.16 -4.88 -5.16 z M161.84800000000004 13 c0 -4.04 3.18 -7.2 7.18 -7.2 c1.68 0 3.32 0.58 4.7 1.66 l-0.7 1.08 c-1.18 -0.94 -2.54 -1.44 -4 -1.44 c-3.24 0 -5.8 2.62 -5.8 5.9 s2.58 5.9 5.8 5.9 c1.54 0 2.94 -0.54 4 -1.52 l0.72 1.08 c-1.26 1.1 -2.96 1.74 -4.72 1.74 c-4 0 -7.18 -3.18 -7.18 -7.2 z M186.02700000000004 7.32 l-4.24 0 l0 12.68 l-1.4 0 l0 -12.68 l-4.26 0 l0.1 -1.32 l9.7 0 z M189.46600000000004 18.12 l1.24 0 l-1.16 3.74 l-1.02 0 z M202.28400000000005 20 l0 -14 l1.4 0 l0 14 l-1.4 0 z M213.38300000000004 5.800000000000001 c3.08 0 5.14 1.8 5.14 5.24 l0 8.96 l-1.38 0 l0 -8.68 c0 -2.9 -1.62 -4.22 -3.76 -4.22 c-1.9 0 -3.88 1.6 -3.88 3.94 l0 8.96 l-1.38 0 l0 -14 l1.38 0 l0 1.72 c0.82 -1.12 2.14 -1.92 3.88 -1.92 z M222.06200000000004 18.52 c0.94 0.88 2.7 1.68 4.46 1.68 c2.7 0 4.52 -1.46 4.52 -3.64 c0 -1.76 -0.78 -2.76 -4.06 -4.58 c-2.46 -1.36 -3.08 -1.86 -3.08 -2.88 c0 -1.1 1.08 -1.98 2.68 -1.98 c0.96 0 2.14 0.42 2.84 0.86 l0.72 -1.12 c-0.94 -0.6 -2.32 -1.06 -3.54 -1.06 c-2.48 0 -4.18 1.42 -4.18 3.32 c0 1.68 0.86 2.52 3.56 3.96 c2.62 1.38 3.56 2.3 3.56 3.48 c0 1.34 -1.26 2.26 -3 2.26 c-1.42 0 -2.88 -0.7 -3.68 -1.42 z M239.82100000000005 6 c3.28 0 4.8 2.5 4.8 5.08 c0 2.56 -1.52 5.06 -4.8 5.06 l-3.7 0 l0 3.86 l-1.4 0 l0 -14 l5.1 0 z M239.74100000000004 14.82 c2.28 0 3.46 -1.76 3.46 -3.74 c0 -2 -1.18 -3.76 -3.46 -3.76 l-3.62 0 l0 7.5 l3.62 0 z M248.48000000000008 20 l0 -14 l1.4 0 l0 14 l-1.4 0 z M259.3190000000001 5.800000000000001 c1.1 0 2.1 0.34 3.08 1.06 l-0.7 1.06 c-0.74 -0.54 -1.56 -0.82 -2.4 -0.82 c-2.22 0 -3.6 2.04 -3.6 5.3 l0 7.6 l-1.38 0 l0 -14 l1.38 0 l0 2.06 c0.76 -1.42 2 -2.26 3.62 -2.26 z M277.87800000000004 13 l0 0.54 l-11.46 0 c0.18 2.96 1.88 5.36 5.42 5.36 c1.84 0 3.56 -0.9 4.48 -2 l0.88 0.88 c-1.08 1.28 -2.96 2.42 -5.36 2.42 c-4.52 0 -6.84 -3.2 -6.84 -7.2 c0 -4.02 2.86 -7.2 6.66 -7.2 c4 0 6.22 3.18 6.22 7.2 z M271.658 7.1 c-2.8 0 -4.9 2.3 -5.22 5.16 l10.1 0 c-0.24 -2.92 -1.88 -5.16 -4.88 -5.16 z"></path></g></svg>
